<svg width="501" height="437" viewBox="0 0 501 437" fill="none" xmlns="http://www.w3.org/2000/svg">
<path d="M33.6154 135.323C27.6378 135.323 22.0873 133.994 16.9637 131.338C11.8401 128.681 7.71274 124.933 4.58165 120.094C1.54545 115.35 0.0273438 109.847 0.0273438 103.585C0.0273438 97.0381 1.2608 91.6773 3.72772 87.5025C6.19463 83.2329 10.0373 79.153 15.2558 75.2628L19.8101 85.2254C15.066 89.1155 12.694 93.4801 12.694 98.319C12.694 103.063 14.2596 106.906 17.3906 109.847C20.6166 112.883 25.3607 114.401 31.6229 114.401C38.2645 114.401 43.1509 112.409 46.282 108.424C49.4131 104.534 50.8363 99.7422 50.5517 94.0494C50.4568 91.0132 49.5554 87.7872 47.8476 84.3715C46.1397 80.9557 44.337 77.967 42.4393 75.4052C40.5417 72.7485 39.1185 70.9457 38.1697 69.9969L56.1023 53.0606C62.6491 69.8546 65.9225 84.1817 65.9225 96.0419C65.9225 103.443 64.7365 110.084 62.3644 115.967C59.9924 121.944 56.3869 126.641 51.5479 130.057C46.709 133.567 40.7315 135.323 33.6154 135.323Z" fill="#1D1A49"/>
<path d="M111.176 107.001C105.009 107.001 99.933 106.004 95.948 104.012C92.0579 101.925 88.9742 98.319 86.6971 93.1954C84.5148 88.0718 83.1864 80.8608 82.712 71.5625L78.0154 7.94449L99.7907 0.970703L98.3675 70.5662C97.9879 83.6598 102.258 90.2067 111.176 90.2067C111.841 90.2067 112.457 91.108 113.027 92.9108C113.691 94.6187 114.023 96.5163 114.023 98.6037C114.023 100.596 113.691 102.494 113.027 104.297C112.457 106.099 111.841 107.001 111.176 107.001Z" fill="#1D1A49"/>
<path d="M111.222 107.001C110.558 107.096 109.941 106.147 109.372 104.154C108.708 102.162 108.376 100.312 108.376 98.6037C108.376 96.8958 108.708 95.0931 109.372 93.1954C109.941 91.2029 110.558 90.2067 111.222 90.2067H141.679C142.343 90.2067 142.96 91.2029 143.529 93.1954C144.193 95.0931 144.525 96.8958 144.525 98.6037C144.525 100.312 144.193 102.162 143.529 104.154C142.96 106.052 142.343 107.001 141.679 107.001H111.222Z" fill="#1D1A49"/>
<path d="M141.66 107.001C140.996 107.096 140.379 106.147 139.81 104.154C139.146 102.162 138.814 100.312 138.814 98.6037C138.814 96.8958 139.146 95.0931 139.81 93.1954C140.379 91.2029 140.996 90.2067 141.66 90.2067H172.117C172.781 90.2067 173.398 91.2029 173.967 93.1954C174.631 95.0931 174.963 96.8958 174.963 98.6037C174.963 100.312 174.631 102.162 173.967 104.154C173.398 106.052 172.781 107.001 172.117 107.001H141.66Z" fill="#1D1A49"/>
<path d="M172.098 107.001C171.434 107.096 170.817 106.147 170.248 104.154C169.584 102.162 169.252 100.312 169.252 98.6037C169.252 96.8958 169.584 95.0931 170.248 93.1954C170.817 91.2029 171.434 90.2067 172.098 90.2067H202.555C203.219 90.2067 203.836 91.2029 204.405 93.1954C205.069 95.0931 205.401 96.8958 205.401 98.6037C205.401 100.312 205.069 102.162 204.405 104.154C203.836 106.052 203.219 107.001 202.555 107.001H172.098Z" fill="#1D1A49"/>
<path d="M202.536 107.001C201.872 107.096 201.255 106.147 200.686 104.154C200.022 102.162 199.69 100.312 199.69 98.6037C199.69 96.8958 200.022 95.0931 200.686 93.1954C201.255 91.2029 201.872 90.2067 202.536 90.2067H232.993C233.657 90.2067 234.274 91.2029 234.843 93.1954C235.507 95.0931 235.839 96.8958 235.839 98.6037C235.839 100.312 235.507 102.162 234.843 104.154C234.274 106.052 233.657 107.001 232.993 107.001H202.536Z" fill="#1D1A49"/>
<path d="M232.974 107.001C232.31 107.096 231.693 106.147 231.124 104.154C230.46 102.162 230.128 100.312 230.128 98.6037C230.128 96.8958 230.46 95.0931 231.124 93.1954C231.693 91.2029 232.31 90.2067 232.974 90.2067H263.431C264.095 90.2067 264.712 91.2029 265.281 93.1954C265.945 95.0931 266.277 96.8958 266.277 98.6037C266.277 100.312 265.945 102.162 265.281 104.154C264.712 106.052 264.095 107.001 263.431 107.001H232.974Z" fill="#1D1A49"/>
<path d="M263.412 107.001C262.748 107.001 262.131 106.147 261.562 104.439C260.898 102.636 260.566 100.691 260.566 98.6037C260.566 96.5163 260.85 94.6187 261.42 92.9108C261.989 91.108 262.653 90.2067 263.412 90.2067C266.353 90.2067 268.915 89.1155 271.098 86.9333C273.28 84.6561 274.181 81.1455 273.802 76.4014L271.667 50.7834L292.873 53.4876L292.73 70.8509C292.73 75.1205 293.442 78.5363 294.865 81.0981C296.383 83.6599 298.661 85.5575 301.697 86.7909C302.741 79.2953 304.828 71.7522 307.959 64.1617C311.185 56.5712 315.502 50.2142 320.91 45.0906C326.319 39.967 332.628 37.4052 339.839 37.4052C345.342 37.4052 350.181 38.6861 354.356 41.2479C358.531 43.8097 361.757 47.4152 364.034 52.0643C366.406 56.7135 367.592 62.0743 367.592 68.1467C367.592 71.1829 367.45 73.7922 367.165 75.9745C368.873 85.4626 372.478 90.2067 377.981 90.2067C378.74 90.2067 379.405 91.0606 379.974 92.7685C380.638 94.4763 380.97 96.4214 380.97 98.6037C380.97 100.691 380.638 102.636 379.974 104.439C379.405 106.147 378.74 107.001 377.981 107.001C374.281 107.001 370.818 105.91 367.592 103.727C364.366 101.45 361.899 98.0344 360.191 93.4801C356.301 97.8446 350.94 101.213 344.109 103.585C337.372 105.862 329.307 107.001 319.914 107.001C311.849 107.001 304.875 105.815 298.993 103.443C293.205 101.071 289.125 97.7972 286.753 93.6224C284.76 97.8921 281.772 101.213 277.787 103.585C273.802 105.862 269.01 107.001 263.412 107.001ZM312.086 89.2104C316.071 89.5899 318.87 89.7797 320.483 89.7797C329.212 89.7797 335.996 88.0244 340.835 84.5138C345.769 80.9083 348.236 76.0693 348.236 69.9969C348.236 65.6324 347.192 61.9795 345.105 59.0381C343.018 56.0968 340.124 54.6261 336.423 54.6261C331.774 54.6261 327.694 56.6187 324.184 60.6037C320.673 64.5887 317.922 69.2853 315.929 74.6936C313.937 80.1018 312.656 84.9407 312.086 89.2104Z" fill="#1D1A49"/>
<path d="M418.638 108.993C414.178 108.993 409.909 108.139 405.829 106.431C401.844 104.629 398.381 102.114 395.439 98.8883C391.739 104.297 385.951 107.001 378.076 107.001C377.412 107.001 376.795 106.147 376.226 104.439C375.562 102.636 375.23 100.691 375.23 98.6037C375.23 96.5163 375.514 94.6187 376.083 92.9108C376.653 91.108 377.317 90.2067 378.076 90.2067C380.922 90.2067 383.057 88.4988 384.48 85.0831C385.904 81.6673 386.615 77.5874 386.615 72.8434C386.615 66.8658 388.039 61.3153 390.885 56.1917C393.731 51.0681 397.574 46.9882 402.413 43.952C407.252 40.9158 412.613 39.3977 418.495 39.3977C424.473 39.3977 429.881 41.0107 434.72 44.2366C439.654 47.3677 443.497 51.7323 446.248 57.3303C449.095 62.8334 450.518 69.0007 450.518 75.8321C450.518 81.4301 449.332 86.7909 446.96 91.9145C444.588 96.9432 440.982 101.071 436.143 104.297C431.399 107.428 425.564 108.993 418.638 108.993ZM399.14 74.5512C399.14 78.8209 400.658 82.4738 403.694 85.51C406.825 88.5462 410.525 90.0643 414.795 90.0643C419.16 90.0643 422.86 88.5937 425.896 85.6524C428.932 82.6162 430.451 78.9158 430.451 74.5512C430.451 70.1867 428.885 66.4389 425.754 63.3078C422.718 60.1767 419.065 58.6112 414.795 58.6112C410.431 58.6112 406.73 60.1767 403.694 63.3078C400.658 66.4389 399.14 70.1867 399.14 74.5512Z" fill="#1D1A49"/>
<path d="M456.325 119.383V117.106C460.121 117.106 464.39 115.635 469.134 112.694C473.973 109.752 478.053 105.957 481.374 101.308C484.79 96.5637 486.498 91.6773 486.498 86.6486C486.498 85.1305 486.26 83.4226 485.786 81.525L477.389 49.6449L500.018 38.8284L499.449 87.9295C499.354 94.9507 497.931 101.687 495.179 108.139C492.523 114.591 488.917 120.094 484.363 124.649C479.903 129.203 475.112 132.239 469.988 133.757L456.325 119.383Z" fill="#1D1A49"/>
<path d="M65.0747 285.469C59.5715 285.469 54.3531 284.33 49.4192 282.053C44.4854 279.871 40.4529 276.55 37.3219 272.091C34.2856 267.631 32.7675 262.318 32.7675 256.15C32.7675 250.552 34.4754 245.476 37.8911 240.922C41.3069 236.368 45.9086 232.051 51.6964 227.971C45.9086 221.898 41.212 217.391 37.6065 214.45C34.001 211.509 30.5378 209.991 27.217 209.896L20.5278 190.825C29.1621 189.591 38.5553 188.453 48.7076 187.409C58.9548 186.27 66.9723 185.701 72.7601 185.701C78.4529 185.701 83.3393 186.697 87.4192 188.69C91.594 190.682 94.4405 194.478 95.9586 200.076C96.433 201.973 96.6702 203.539 96.6702 204.772C96.6702 209.706 94.6777 214.165 90.6926 218.15C86.8025 222.136 81.3468 226.263 74.3256 230.533C78.785 233.948 83.2445 236.605 87.7039 238.503C92.2582 240.305 97.192 241.207 102.505 241.207C103.264 241.207 103.929 242.108 104.498 243.911C105.067 245.619 105.352 247.516 105.352 249.604C105.352 251.691 105.02 253.636 104.356 255.439C103.786 257.147 103.17 258.001 102.505 258.001C94.7251 258.001 87.6564 256.245 81.2994 252.735C75.0372 249.224 68.6327 244.385 62.0859 238.218C57.4367 241.064 53.8787 243.768 51.4117 246.33C49.0397 248.892 47.8537 251.644 47.8537 254.585C47.8537 259.329 50.9373 262.65 57.1046 264.547C63.3668 266.445 70.5303 267.821 78.5953 268.675V270.81L65.0747 285.469ZM48.423 205.057C50.3206 206.67 52.0759 208.425 53.6889 210.323C55.3968 212.126 56.5828 213.359 57.2469 214.023C59.5241 216.68 61.4217 218.767 62.9398 220.285L66.2132 218.293C70.1034 216.111 73.187 214.071 75.4642 212.173C77.8362 210.275 79.0222 208.33 79.0222 206.338C79.0222 205.579 78.9274 205.009 78.7376 204.63C78.0734 202.922 75.7014 202.068 71.6215 202.068C70.1983 202.068 68.5378 202.21 66.6402 202.495L48.423 205.057Z" fill="#1D1A49"/>
<path d="M102.535 258.001C101.871 258.096 101.254 257.147 100.685 255.154C100.021 253.162 99.6889 251.312 99.6889 249.604C99.6889 247.896 100.021 246.093 100.685 244.195C101.254 242.203 101.871 241.207 102.535 241.207H132.992C133.656 241.207 134.273 242.203 134.843 244.195C135.507 246.093 135.839 247.896 135.839 249.604C135.839 251.312 135.507 253.162 134.843 255.154C134.273 257.052 133.656 258.001 132.992 258.001H102.535Z" fill="#1D1A49"/>
<path d="M132.973 258.001C132.309 258.096 131.693 257.147 131.123 255.154C130.459 253.162 130.127 251.312 130.127 249.604C130.127 247.896 130.459 246.093 131.123 244.195C131.693 242.203 132.309 241.207 132.973 241.207H163.43C164.095 241.207 164.711 242.203 165.281 244.195C165.945 246.093 166.277 247.896 166.277 249.604C166.277 251.312 165.945 253.162 165.281 255.154C164.711 257.052 164.095 258.001 163.43 258.001H132.973Z" fill="#1D1A49"/>
<path d="M163.411 258.001C162.747 258.096 162.131 257.147 161.561 255.154C160.897 253.162 160.565 251.312 160.565 249.604C160.565 247.896 160.897 246.093 161.561 244.195C162.131 242.203 162.747 241.207 163.411 241.207H193.868C194.533 241.207 195.149 242.203 195.719 244.195C196.383 246.093 196.715 247.896 196.715 249.604C196.715 251.312 196.383 253.162 195.719 255.154C195.149 257.052 194.533 258.001 193.868 258.001H163.411Z" fill="#1D1A49"/>
<path d="M193.849 258.001C193.185 258.096 192.569 257.147 191.999 255.154C191.335 253.162 191.003 251.312 191.003 249.604C191.003 247.896 191.335 246.093 191.999 244.195C192.569 242.203 193.185 241.207 193.849 241.207H224.306C224.971 241.207 225.587 242.203 226.157 244.195C226.821 246.093 227.153 247.896 227.153 249.604C227.153 251.312 226.821 253.162 226.157 255.154C225.587 257.052 224.971 258.001 224.306 258.001H193.849Z" fill="#1D1A49"/>
<path d="M224.288 258.001C223.623 258.096 223.007 257.147 222.437 255.154C221.773 253.162 221.441 251.312 221.441 249.604C221.441 247.896 221.773 246.093 222.437 244.195C223.007 242.203 223.623 241.207 224.288 241.207H254.744C255.409 241.207 256.025 242.203 256.595 244.195C257.259 246.093 257.591 247.896 257.591 249.604C257.591 251.312 257.259 253.162 256.595 255.154C256.025 257.052 255.409 258.001 254.744 258.001H224.288Z" fill="#1D1A49"/>
<path d="M254.726 258.001C254.061 258.096 253.445 257.147 252.875 255.154C252.211 253.162 251.879 251.312 251.879 249.604C251.879 247.896 252.211 246.093 252.875 244.195C253.445 242.203 254.061 241.207 254.726 241.207H285.182C285.847 241.207 286.463 242.203 287.033 244.195C287.697 246.093 288.029 247.896 288.029 249.604C288.029 251.312 287.697 253.162 287.033 255.154C286.463 257.052 285.847 258.001 285.182 258.001H254.726Z" fill="#1D1A49"/>
<path d="M285.164 258.001C284.499 258.096 283.883 257.147 283.313 255.154C282.649 253.162 282.317 251.312 282.317 249.604C282.317 247.896 282.649 246.093 283.313 244.195C283.883 242.203 284.499 241.207 285.164 241.207H315.62C316.285 241.207 316.901 242.203 317.471 244.195C318.135 246.093 318.467 247.896 318.467 249.604C318.467 251.312 318.135 253.162 317.471 255.154C316.901 257.052 316.285 258.001 315.62 258.001H285.164Z" fill="#1D1A49"/>
<path d="M315.602 258.001C314.937 258.096 314.321 257.147 313.751 255.154C313.087 253.162 312.755 251.312 312.755 249.604C312.755 247.896 313.087 246.093 313.751 244.195C314.321 242.203 314.937 241.207 315.602 241.207H346.058C346.723 241.207 347.339 242.203 347.909 244.195C348.573 246.093 348.905 247.896 348.905 249.604C348.905 251.312 348.573 253.162 347.909 255.154C347.339 257.052 346.723 258.001 346.058 258.001H315.602Z" fill="#1D1A49"/>
<path d="M346.04 258.001C345.375 258.096 344.759 257.147 344.189 255.154C343.525 253.162 343.193 251.312 343.193 249.604C343.193 247.896 343.525 246.093 344.189 244.195C344.759 242.203 345.375 241.207 346.04 241.207H376.497C377.161 241.207 377.777 242.203 378.347 244.195C379.011 246.093 379.343 247.896 379.343 249.604C379.343 251.312 379.011 253.162 378.347 255.154C377.777 257.052 377.161 258.001 376.497 258.001H346.04Z" fill="#1D1A49"/>
<path d="M376.478 258.001C375.813 258.096 375.197 257.147 374.627 255.154C373.963 253.162 373.631 251.312 373.631 249.604C373.631 247.896 373.963 246.093 374.627 244.195C375.197 242.203 375.813 241.207 376.478 241.207H406.935C407.599 241.207 408.215 242.203 408.785 244.195C409.449 246.093 409.781 247.896 409.781 249.604C409.781 251.312 409.449 253.162 408.785 255.154C408.215 257.052 407.599 258.001 406.935 258.001H376.478Z" fill="#1D1A49"/>
<path d="M447.477 259.993C443.018 259.993 438.748 259.139 434.668 257.431C430.683 255.629 427.22 253.114 424.279 249.888C420.579 255.297 414.791 258.001 406.916 258.001C406.251 258.001 405.635 257.147 405.065 255.439C404.401 253.636 404.069 251.691 404.069 249.604C404.069 247.516 404.354 245.619 404.923 243.911C405.492 242.108 406.157 241.207 406.916 241.207C409.762 241.207 411.897 239.499 413.32 236.083C414.743 232.667 415.455 228.587 415.455 223.843C415.455 217.866 416.878 212.315 419.725 207.192C422.571 202.068 426.414 197.988 431.253 194.952C436.092 191.916 441.452 190.398 447.335 190.398C453.313 190.398 458.721 192.011 463.56 195.237C468.494 198.368 472.336 202.732 475.088 208.33C477.934 213.833 479.358 220.001 479.358 226.832C479.358 232.43 478.172 237.791 475.8 242.915C473.427 247.943 469.822 252.071 464.983 255.297C460.239 258.428 454.404 259.993 447.477 259.993ZM427.979 225.551C427.979 229.821 429.497 233.474 432.534 236.51C435.665 239.546 439.365 241.064 443.635 241.064C447.999 241.064 451.7 239.594 454.736 236.652C457.772 233.616 459.29 229.916 459.29 225.551C459.29 221.187 457.725 217.439 454.594 214.308C451.557 211.177 447.904 209.611 443.635 209.611C439.27 209.611 435.57 211.177 432.534 214.308C429.497 217.439 427.979 221.187 427.979 225.551Z" fill="#1D1A49"/>
<path d="M45.551 421.952V419.675C49.4411 419.675 53.6633 418.157 58.2176 415.121C62.8668 412.179 66.7569 408.242 69.888 403.308C73.0191 398.374 74.5847 393.25 74.5847 387.937C74.5847 387.083 74.4898 385.802 74.3 384.094L67.6109 350.649L89.2438 340.828L88.6745 374.132C88.5797 381.248 89.5285 386.039 91.521 388.506C93.5135 390.973 96.2651 392.207 99.7757 392.207C100.535 392.207 101.199 393.108 101.768 394.911C102.337 396.619 102.622 398.516 102.622 400.604C102.622 402.691 102.29 404.636 101.626 406.439C101.057 408.147 100.44 409.001 99.7757 409.001C96.9292 409.001 94.3674 408.384 92.0903 407.15C89.8131 405.822 88.0578 404.209 86.8244 402.312C84.9267 411.23 81.5584 418.631 76.7195 424.514C71.8805 430.396 66.0453 434.334 59.2139 436.327L45.551 421.952Z" fill="#1D1A49"/>
<path d="M140.317 410.993C135.858 410.993 131.588 410.139 127.508 408.431C123.523 406.629 120.06 404.114 117.119 400.888C113.419 406.297 107.631 409.001 99.7557 409.001C99.0915 409.001 98.4748 408.147 97.9055 406.439C97.2413 404.636 96.9092 402.691 96.9092 400.604C96.9092 398.516 97.1939 396.619 97.7631 394.911C98.3324 393.108 98.9966 392.207 99.7557 392.207C102.602 392.207 104.737 390.499 106.16 387.083C107.583 383.667 108.295 379.587 108.295 374.843C108.295 368.866 109.718 363.315 112.565 358.192C115.411 353.068 119.254 348.988 124.093 345.952C128.932 342.916 134.292 341.398 140.175 341.398C146.153 341.398 151.561 343.011 156.4 346.237C161.334 349.368 165.176 353.732 167.928 359.33C170.774 364.833 172.198 371.001 172.198 377.832C172.198 383.43 171.012 388.791 168.64 393.915C166.268 398.943 162.662 403.071 157.823 406.297C153.079 409.428 147.244 410.993 140.317 410.993ZM120.819 376.551C120.819 380.821 122.337 384.474 125.374 387.51C128.505 390.546 132.205 392.064 136.475 392.064C140.839 392.064 144.54 390.594 147.576 387.652C150.612 384.616 152.13 380.916 152.13 376.551C152.13 372.187 150.565 368.439 147.434 365.308C144.397 362.177 140.744 360.611 136.475 360.611C132.11 360.611 128.41 362.177 125.374 365.308C122.337 368.439 120.819 372.187 120.819 376.551Z" fill="#1D1A49"/>
<path d="M201.346 421.383V418.821C203.243 418.631 205.853 418.014 209.174 416.971C212.494 415.927 215.531 414.599 218.282 412.986C221.129 411.373 222.979 409.665 223.833 407.862L223.69 407.293C210.217 405.395 200.16 401.6 193.518 395.907C186.971 390.119 183.698 381.627 183.698 370.431C183.698 364.644 185.074 359.188 187.825 354.064C190.672 348.846 194.467 344.719 199.211 341.682C203.955 338.551 209.126 336.986 214.724 336.986C220.512 336.986 225.825 338.504 230.664 341.54C235.598 344.576 239.536 349.178 242.477 355.345C245.513 361.513 247.031 369.103 247.031 378.117C247.031 379.92 246.936 382.102 246.747 384.664C246.652 387.225 246.509 389.408 246.32 391.21C249.261 391.875 252.202 392.207 255.144 392.207C255.903 392.207 256.567 393.108 257.136 394.911C257.705 396.619 257.99 398.516 257.99 400.604C257.99 402.691 257.658 404.636 256.994 406.439C256.424 408.147 255.808 409.001 255.144 409.001C252.013 409.001 247.601 408.906 241.908 408.716C238.682 416.117 234.459 422.379 229.241 427.503C224.023 432.721 218.472 435.852 212.589 436.896L201.346 421.383ZM203.054 372.139C203.054 376.504 204.477 380.346 207.323 383.667C210.265 386.893 214.107 388.506 218.851 388.506C223.596 388.506 227.201 387.036 229.668 384.094C232.135 381.153 233.368 377.69 233.368 373.705C233.368 369.15 231.85 365.26 228.814 362.034C225.873 358.808 222.267 357.195 217.998 357.195C213.918 357.195 210.407 358.666 207.466 361.607C204.524 364.454 203.054 367.964 203.054 372.139Z" fill="#1D1A49"/>
<path d="M255.142 409.001C254.478 409.096 253.862 408.147 253.292 406.154C252.628 404.162 252.296 402.312 252.296 400.604C252.296 398.896 252.628 397.093 253.292 395.195C253.862 393.203 254.478 392.207 255.142 392.207H285.599C286.264 392.207 286.88 393.203 287.45 395.195C288.114 397.093 288.446 398.896 288.446 400.604C288.446 402.312 288.114 404.162 287.45 406.154C286.88 408.052 286.264 409.001 285.599 409.001H255.142Z" fill="#1D1A49"/>
<path d="M285.581 409.001C284.916 409.096 284.3 408.147 283.73 406.154C283.066 404.162 282.734 402.312 282.734 400.604C282.734 398.896 283.066 397.093 283.73 395.195C284.3 393.203 284.916 392.207 285.581 392.207H316.037C316.702 392.207 317.318 393.203 317.888 395.195C318.552 397.093 318.884 398.896 318.884 400.604C318.884 402.312 318.552 404.162 317.888 406.154C317.318 408.052 316.702 409.001 316.037 409.001H285.581Z" fill="#1D1A49"/>
<path d="M316.019 409.001C315.354 409.096 314.738 408.147 314.168 406.154C313.504 404.162 313.172 402.312 313.172 400.604C313.172 398.896 313.504 397.093 314.168 395.195C314.738 393.203 315.354 392.207 316.019 392.207H346.475C347.14 392.207 347.756 393.203 348.326 395.195C348.99 397.093 349.322 398.896 349.322 400.604C349.322 402.312 348.99 404.162 348.326 406.154C347.756 408.052 347.14 409.001 346.475 409.001H316.019Z" fill="#1D1A49"/>
<path d="M346.457 409.001C345.792 409.096 345.176 408.147 344.606 406.154C343.942 404.162 343.61 402.312 343.61 400.604C343.61 398.896 343.942 397.093 344.606 395.195C345.176 393.203 345.792 392.207 346.457 392.207H376.913C377.578 392.207 378.194 393.203 378.764 395.195C379.428 397.093 379.76 398.896 379.76 400.604C379.76 402.312 379.428 404.162 378.764 406.154C378.194 408.052 377.578 409.001 376.913 409.001H346.457Z" fill="#1D1A49"/>
<path d="M376.895 409.001C376.23 409.001 375.614 408.147 375.044 406.439C374.38 404.636 374.048 402.691 374.048 400.604C374.048 398.516 374.333 396.619 374.902 394.911C375.471 393.108 376.136 392.207 376.895 392.207C380.595 392.207 384.248 391.4 387.853 389.787C391.554 388.174 396.345 385.66 402.228 382.244C406.118 379.967 409.439 378.117 412.19 376.694C415.037 375.175 417.931 373.895 420.872 372.851C406.45 367.158 394.305 364.074 384.438 363.6L383.157 362.319L396.962 340.401C403.319 346.853 410.293 352.499 417.883 357.338C425.569 362.177 434.393 364.596 444.355 364.596H449.337L442.505 385.233C437.856 385.043 433.491 385.518 429.411 386.656C425.332 387.7 421.726 389.076 418.595 390.783C415.464 392.396 411.526 394.674 406.782 397.615C400.615 401.41 395.396 404.257 391.127 406.154C386.857 408.052 382.113 409.001 376.895 409.001Z" fill="#1D1A49"/>
<path d="M314.933 18.9033C313.13 20.7061 312.229 22.8884 312.229 25.4502C312.229 28.012 313.13 30.1942 314.933 31.997C316.735 33.7997 318.918 34.7011 321.479 34.7011C323.946 34.7011 326.081 33.7997 327.884 31.997C329.782 30.1942 330.73 28.012 330.73 25.4502C330.73 22.8884 329.782 20.7061 327.884 18.9033C326.081 17.1006 323.946 16.1992 321.479 16.1992C318.918 16.1992 316.735 17.1006 314.933 18.9033Z" fill="#1D1A49"/>
<path d="M407.704 328.704C405.901 330.507 405 332.689 405 335.251C405 337.813 405.901 339.995 407.704 341.798C409.507 343.6 411.689 344.502 414.251 344.502C416.718 344.502 418.853 343.6 420.655 341.798C422.553 339.995 423.502 337.813 423.502 335.251C423.502 332.689 422.553 330.507 420.655 328.704C418.853 326.901 416.718 326 414.251 326C411.689 326 409.507 326.901 407.704 328.704Z" fill="#1D1A49"/>
<path d="M399.047 321.204L400.043 315.653L411.429 310.387C409.721 309.913 408.393 308.774 407.444 306.972C406.875 305.833 406.59 304.552 406.59 303.129C406.59 301.516 406.969 299.998 407.729 298.575C408.582 297.151 409.768 296.06 411.287 295.301C412.615 294.732 413.896 294.447 415.129 294.447C416.742 294.447 418.26 294.874 419.684 295.728C421.107 296.582 422.198 297.673 422.957 299.002C423.621 300.33 423.953 301.706 423.953 303.129C423.953 304.932 423.526 306.64 422.672 308.253C421.913 309.866 420.775 311.099 419.257 311.953L399.758 322.627L399.047 321.204ZM412.71 304.837C413.374 306.07 414.323 306.687 415.556 306.687C416.126 306.687 416.6 306.545 416.979 306.26C418.118 305.691 418.687 304.742 418.687 303.414C418.687 302.465 418.355 301.706 417.691 301.136C417.122 300.472 416.41 300.14 415.556 300.14C414.607 300.14 413.848 300.472 413.279 301.136C412.71 301.801 412.425 302.56 412.425 303.414C412.425 303.793 412.52 304.268 412.71 304.837Z" fill="#1D1A49"/>
<path d="M128.387 322.899L129.81 318.345L153.293 306.816V313.363L129.098 324.322L128.387 322.899Z" fill="#1D1A49"/>
<path d="M75.1105 334.798C72.3589 334.798 69.9869 333.849 67.9944 331.952C66.0968 329.959 65.1479 327.587 65.1479 324.836C65.1479 322.084 66.0968 319.759 67.9944 317.862C69.9869 315.869 72.3589 314.873 75.1105 314.873C77.8621 314.873 80.1867 315.869 82.0843 317.862C84.0768 319.759 85.073 322.084 85.073 324.836C85.073 327.492 84.0768 329.817 82.0843 331.809C80.1867 333.802 77.8621 334.798 75.1105 334.798ZM71.2678 323.412C71.2678 324.456 71.6473 325.357 72.4064 326.116C73.1654 326.876 74.0668 327.255 75.1105 327.255C76.1542 327.255 77.0556 326.876 77.8146 326.116C78.6686 325.357 79.0955 324.456 79.0955 323.412C79.0955 322.274 78.6686 321.325 77.8146 320.566C77.0556 319.807 76.1542 319.427 75.1105 319.427C74.0668 319.427 73.1654 319.807 72.4064 320.566C71.6473 321.325 71.2678 322.274 71.2678 323.412Z" fill="#1D1A49"/>
<path d="M435.547 171.899L436.97 167.344L460.453 155.816V162.363L436.258 173.322L435.547 171.899Z" fill="#1D1A49"/>
<path d="M24.9336 37.4053C23.1309 39.208 22.2295 41.3903 22.2295 43.9521C22.2295 46.419 23.1309 48.5539 24.9336 50.3566C26.7364 52.1594 28.9186 53.0607 31.4804 53.0607C33.9473 53.0607 36.0822 52.1594 37.8849 50.3566C39.7826 48.5539 40.7314 46.419 40.7314 43.9521C40.7314 41.3903 39.7826 39.208 37.8849 37.4053C36.0822 35.6025 33.9473 34.7012 31.4804 34.7012C28.9186 34.7012 26.7364 35.6025 24.9336 37.4053Z" fill="#1D1A49"/>
<path d="M473.56 33.8988L474.983 29.3445L498.466 17.8164V24.3632L474.271 35.322L473.56 33.8988Z" fill="#1D1A49"/>
</svg>
