<svg width="300" height="253" viewBox="0 0 300 253" fill="none" xmlns="http://www.w3.org/2000/svg">
<g clip-path="url(#clip0_692_489)">
<g opacity="0.42" filter="url(#filter0_f_692_489)">
<path d="M304 229.5C304 243.583 258.557 255 202.5 255C146.443 255 101 243.583 101 229.5C101 215.417 146.443 204 202.5 204C258.557 204 304 215.417 304 229.5Z" fill="#303030"/>
</g>
<path opacity="0.302" fill-rule="evenodd" clip-rule="evenodd" d="M15.0565 -0.314453C19.1535 -0.314453 23.2504 -0.314453 27.3474 -0.314453C83.5298 3.03558 139.044 11.5319 193.889 25.1744C217.224 31.1485 239.552 39.7497 260.875 50.978C287.349 69.0341 297.285 94.1032 290.68 126.186C283.421 154.592 266.828 174.941 240.902 187.233C236.871 215.537 221.814 234.732 195.733 244.819C168.385 252.477 144.93 245.869 125.367 224.995C111.807 208.046 106.891 188.746 110.618 167.094C112.323 160.391 114.371 153.888 116.764 147.584C74.92 116.813 35.8964 82.4086 -0.307129 44.3697C-0.307129 43.5306 -0.307129 42.6914 -0.307129 41.8523C4.92218 27.8896 10.0434 13.834 15.0565 -0.314453ZM201.264 192.268C207.238 192.493 213.179 192.493 219.086 192.268C214.211 209.847 203.149 221.176 185.9 226.253C185.286 219.974 185.082 213.68 185.286 207.373C192.753 204.761 198.079 199.727 201.264 192.268ZM149.642 192.268C149.677 192.966 149.882 193.595 150.257 194.156C153.28 200.43 157.991 204.835 164.391 207.373C165.21 213.666 165.21 219.96 164.391 226.253C147.355 220.975 136.293 209.646 131.206 192.268C137.351 192.268 143.497 192.268 149.642 192.268ZM134.278 160.171C138.851 162.619 143.358 165.241 147.798 168.038C148.724 168.565 149.032 169.299 148.72 170.241C142.714 171.07 136.671 171.07 130.591 170.241C131.461 166.727 132.69 163.37 134.278 160.171Z" fill="#2C261D"/>
<path fill-rule="evenodd" clip-rule="evenodd" d="M235.678 155.764C238.417 161.248 240.056 167.122 240.595 173.386C240.08 173.601 239.874 174.02 239.98 174.644C238.953 168.331 237.518 162.038 235.678 155.764Z" fill="#5B3E24"/>
<path fill-rule="evenodd" clip-rule="evenodd" d="M230.762 145.695C233.04 148.683 234.679 152.04 235.678 155.765C233.728 152.608 232.089 149.252 230.762 145.695Z" fill="#4F3722"/>
<path fill-rule="evenodd" clip-rule="evenodd" d="M229.533 143.807C230.397 144.104 230.807 144.734 230.762 145.695C229.898 145.397 229.488 144.768 229.533 143.807Z" fill="#473421"/>
<path fill-rule="evenodd" clip-rule="evenodd" d="M228.304 141.92C229.168 142.218 229.578 142.847 229.533 143.808C228.669 143.51 228.259 142.881 228.304 141.92Z" fill="#483420"/>
<path fill-rule="evenodd" clip-rule="evenodd" d="M226.459 139.402C227.542 139.882 228.157 140.721 228.303 141.92C227.22 141.44 226.606 140.601 226.459 139.402Z" fill="#4A3521"/>
<path fill-rule="evenodd" clip-rule="evenodd" d="M134.278 128.703C130.369 132.915 126.477 137.111 122.602 141.29C125.647 136.283 129.539 132.087 134.278 128.703Z" fill="#533A22"/>
<path fill-rule="evenodd" clip-rule="evenodd" d="M219.7 131.85C220.85 132.076 221.772 132.705 222.466 133.738C223.947 135.561 225.278 137.449 226.46 139.402C223.757 137.265 221.504 134.748 219.7 131.85Z" fill="#644225"/>
<path fill-rule="evenodd" clip-rule="evenodd" d="M215.398 128.072C217.197 128.863 218.632 130.122 219.7 131.848C217.901 131.057 216.467 129.799 215.398 128.072Z" fill="#4E3722"/>
<path fill-rule="evenodd" clip-rule="evenodd" d="M136.736 126.814C136.268 127.923 135.448 128.553 134.278 128.703C134.746 127.594 135.566 126.964 136.736 126.814Z" fill="#4C3621"/>
<path fill-rule="evenodd" clip-rule="evenodd" d="M215.398 123.039C214.765 124.757 214.765 126.435 215.398 128.074C214.228 127.924 213.408 127.295 212.939 126.186C213.973 125.351 214.792 124.302 215.398 123.039Z" fill="#423424"/>
<path fill-rule="evenodd" clip-rule="evenodd" d="M211.097 124.927C212.035 124.881 212.65 125.301 212.94 126.186C212.002 126.232 211.387 125.812 211.097 124.927Z" fill="#4A3F30"/>
<path fill-rule="evenodd" clip-rule="evenodd" d="M142.268 123.039C140.747 124.764 138.903 126.023 136.737 126.815C138.243 125.067 140.087 123.809 142.268 123.039Z" fill="#4E3722"/>
<path fill-rule="evenodd" clip-rule="evenodd" d="M209.252 123.667C210.191 123.622 210.805 124.041 211.096 124.926C210.158 124.972 209.543 124.552 209.252 123.667Z" fill="#4B4131"/>
<path fill-rule="evenodd" clip-rule="evenodd" d="M217.242 118.004C217.294 119.986 216.68 121.664 215.398 123.039C215.542 121.124 216.156 119.446 217.242 118.004Z" fill="#453B2C"/>
<path fill-rule="evenodd" clip-rule="evenodd" d="M179.14 109.193C179.087 110.563 178.677 111.822 177.911 112.969C179.428 113.39 180.862 113.81 182.212 114.228C168.09 113.47 154.776 116.407 142.267 123.039C152.701 116.275 164.173 113.023 176.682 113.284C177.439 111.828 178.259 110.464 179.14 109.193Z" fill="#4C3723"/>
<path fill-rule="evenodd" clip-rule="evenodd" d="M182.212 114.229C192.115 114.881 201.129 118.028 209.252 123.669C200.684 118.996 191.671 115.85 182.212 114.229Z" fill="#4E3F2D"/>
<path fill-rule="evenodd" clip-rule="evenodd" d="M182.212 114.228C191.671 115.849 200.684 118.996 209.252 123.668C209.543 124.553 210.157 124.973 211.096 124.927C211.387 125.812 212.001 126.232 212.939 126.186C213.408 127.295 214.228 127.924 215.398 128.074C216.466 129.8 217.901 131.059 219.699 131.85C221.504 134.748 223.757 137.266 226.459 139.402C226.606 140.6 227.22 141.44 228.303 141.92C228.258 142.881 228.668 143.51 229.532 143.808C229.487 144.769 229.897 145.398 230.761 145.696C232.088 149.252 233.727 152.609 235.678 155.765C237.518 162.039 238.952 168.333 239.979 174.646C240.917 205.785 227.807 228.127 200.649 241.672C174.087 251.923 150.324 247.308 129.361 227.826C110.783 206.752 105.969 182.732 114.92 155.765C117.183 150.705 119.744 145.88 122.601 141.29C126.477 137.111 130.369 132.915 134.278 128.703C135.448 128.553 136.268 127.924 136.736 126.815C138.902 126.023 140.746 124.764 142.267 123.039C154.775 116.407 168.09 113.47 182.212 114.228ZM201.263 192.268C198.079 199.726 192.752 204.761 185.285 207.372C185.081 213.68 185.286 219.973 185.9 226.253C203.149 221.175 214.21 209.847 219.085 192.268C213.178 192.493 207.237 192.493 201.263 192.268ZM149.641 192.268C149.676 192.966 149.881 193.595 150.256 194.156C153.28 200.429 157.991 204.835 164.39 207.372C165.21 213.666 165.21 219.959 164.39 226.253C147.355 220.975 136.293 209.646 131.205 192.268C137.351 192.268 143.496 192.268 149.641 192.268ZM134.278 160.171C132.69 163.37 131.461 166.727 130.591 170.24C136.671 171.07 142.714 171.07 148.72 170.24C149.031 169.299 148.724 168.565 147.798 168.038C143.357 165.241 138.851 162.619 134.278 160.171Z" fill="#1D1A49"/>
<path fill-rule="evenodd" clip-rule="evenodd" d="M201.263 191.008C207.831 190.799 214.386 191.009 220.929 191.637C220.852 192.019 220.648 192.229 220.314 192.267C213.964 191.847 207.613 191.428 201.263 191.008Z" fill="#5E3F24"/>
<path opacity="0.957" fill-rule="evenodd" clip-rule="evenodd" d="M149.027 187.861C149.508 190.104 150.327 192.202 151.485 194.155C151.075 194.155 150.666 194.155 150.256 194.155C149.881 193.594 149.677 192.965 149.642 192.267C143.197 191.641 136.641 191.431 129.976 191.637C136.228 191.218 142.579 190.799 149.027 190.379C148.286 189.438 148.286 188.599 149.027 187.861Z" fill="#523A22"/>
<path fill-rule="evenodd" clip-rule="evenodd" d="M148.413 174.646C147.633 178.629 147.633 182.615 148.413 186.604C147.466 185.176 147.056 183.183 147.183 180.625C147.056 178.068 147.466 176.074 148.413 174.646Z" fill="#4B3722"/>
<path fill-rule="evenodd" clip-rule="evenodd" d="M213.554 153.877C217.679 159.195 220.137 165.279 220.929 172.128C214.575 172.024 208.225 172.128 201.878 172.443C203.063 176.86 203.371 181.37 202.8 185.974C202.56 187.613 202.048 189.082 201.263 190.379C201.059 190.379 200.854 190.379 200.649 190.379C203.076 183.479 203.076 176.556 200.649 169.611C201.059 170.031 201.468 170.45 201.878 170.869C207.926 171.702 214.071 171.702 220.314 170.869C220.238 170.487 220.034 170.278 219.7 170.24C218.673 164.364 216.625 158.911 213.554 153.877Z" fill="#443321"/>
<path opacity="0.976" fill-rule="evenodd" clip-rule="evenodd" d="M137.351 153.248C136.271 155.034 135.554 156.922 135.2 158.912C138.018 160.617 140.783 162.4 143.497 164.262C144.723 164.648 145.747 164.333 146.57 163.318C146.245 164.165 146.142 165.005 146.262 165.835C147.356 166.552 148.483 167.181 149.642 167.723C149.847 168.143 150.052 168.562 150.257 168.982C149.602 170.367 149.192 171.836 149.028 173.387C142.63 172.166 136.075 171.747 129.362 172.129C130.367 165.042 133.031 158.748 137.351 153.248ZM134.279 160.171C132.691 163.37 131.462 166.727 130.591 170.241C136.672 171.07 142.715 171.07 148.72 170.241C149.032 169.299 148.725 168.565 147.799 168.038C143.358 165.241 138.851 162.619 134.279 160.171Z" fill="#2C261C"/>
<path fill-rule="evenodd" clip-rule="evenodd" d="M219.7 170.24C220.033 170.278 220.238 170.488 220.314 170.87C214.071 171.702 207.926 171.702 201.878 170.87C207.93 171.075 213.87 170.866 219.7 170.24Z" fill="#A6642D"/>
<path fill-rule="evenodd" clip-rule="evenodd" d="M199.42 167.094C200.406 167.589 200.816 168.428 200.649 169.611C199.928 168.973 199.519 168.134 199.42 167.094Z" fill="#453521"/>
<path fill-rule="evenodd" clip-rule="evenodd" d="M149.027 160.17C148.671 161.585 147.851 162.634 146.569 163.317C146.925 161.901 147.744 160.853 149.027 160.17Z" fill="#534736"/>
<path fill-rule="evenodd" clip-rule="evenodd" d="M158.245 158.281C155.128 161.532 152.465 165.098 150.256 168.98C150.052 168.56 149.846 168.141 149.642 167.722C150.96 165.876 152.292 163.988 153.636 162.057C154.93 160.41 156.467 159.151 158.245 158.281Z" fill="#504531"/>
<path fill-rule="evenodd" clip-rule="evenodd" d="M163.161 155.135C161.735 156.497 160.096 157.546 158.245 158.282C159.464 156.605 161.103 155.556 163.161 155.135Z" fill="#51452F"/>
<path fill-rule="evenodd" clip-rule="evenodd" d="M154.559 152.617C153.183 155.494 151.34 158.011 149.028 160.169C150.403 157.293 152.247 154.775 154.559 152.617Z" fill="#504331"/>
<path fill-rule="evenodd" clip-rule="evenodd" d="M184.671 154.507C185.081 154.507 185.49 154.507 185.9 154.507C186.523 155.246 187.342 155.665 188.358 155.766C192.66 158.913 196.347 162.689 199.42 167.094C199.518 168.134 199.928 168.973 200.649 169.612C203.076 176.557 203.076 183.48 200.649 190.38C197.466 198.36 191.935 203.919 184.056 207.058C169.997 210.969 159.14 206.668 151.485 194.156C150.327 192.203 149.508 190.105 149.027 187.863C149.133 187.238 148.928 186.819 148.413 186.604C147.633 182.615 147.633 178.629 148.413 174.646C148.928 174.431 149.133 174.012 149.027 173.388C149.191 171.836 149.601 170.367 150.256 168.982C152.465 165.1 155.128 161.534 158.245 158.283C160.096 157.547 161.735 156.498 163.162 155.136C170.241 152.151 177.411 151.942 184.671 154.507Z" fill="#D8E5EB"/>
<path fill-rule="evenodd" clip-rule="evenodd" d="M184.671 153.248C184.671 153.668 184.671 154.087 184.671 154.507C177.411 151.942 170.241 152.151 163.162 155.136C163.575 154.654 164.087 154.234 164.698 153.878C165.108 148.633 165.108 143.388 164.698 138.144C164.463 138.494 164.156 138.703 163.777 138.773C164.008 137.667 164.418 136.618 165.006 135.626C164.596 135.417 164.187 135.207 163.777 134.997C161.547 135.759 159.294 136.388 157.017 136.885C159.834 135.224 162.907 134.175 166.235 133.738C166.031 140.255 166.235 146.758 166.849 153.248C172.776 151.647 178.717 151.647 184.671 153.248Z" fill="#5F452A"/>
<path fill-rule="evenodd" clip-rule="evenodd" d="M211.711 151.359C212.794 151.839 213.409 152.679 213.555 153.877C212.472 153.397 211.858 152.558 211.711 151.359Z" fill="#543A22"/>
<path fill-rule="evenodd" clip-rule="evenodd" d="M139.195 150.73C139.048 151.929 138.434 152.768 137.351 153.248C137.497 152.05 138.112 151.21 139.195 150.73Z" fill="#553A22"/>
<path fill-rule="evenodd" clip-rule="evenodd" d="M156.402 150.102C156.255 151.3 155.641 152.139 154.558 152.619C154.704 151.421 155.319 150.581 156.402 150.102Z" fill="#4D4130"/>
<path fill-rule="evenodd" clip-rule="evenodd" d="M157.63 148.213C157.675 149.174 157.265 149.803 156.401 150.101C156.356 149.14 156.766 148.511 157.63 148.213Z" fill="#4D4232"/>
<path fill-rule="evenodd" clip-rule="evenodd" d="M145.954 143.807C143.906 146.324 141.653 148.632 139.194 150.73C140.833 147.792 143.086 145.485 145.954 143.807Z" fill="#533A22"/>
<path fill-rule="evenodd" clip-rule="evenodd" d="M203.722 143.178C205.313 143.756 206.542 144.805 207.409 146.324C206.797 146.379 206.285 146.168 205.873 145.695C203.058 151.251 200.088 156.706 196.962 162.058C198.066 163.603 198.886 165.282 199.42 167.093C196.347 162.688 192.66 158.912 188.358 155.765C191.479 156.792 194.04 158.68 196.04 161.429C199.218 156.601 202.086 151.566 204.644 146.324C205.021 145.069 204.713 144.02 203.722 143.178Z" fill="#4C3D2A"/>
<path fill-rule="evenodd" clip-rule="evenodd" d="M207.409 146.324C209.298 147.626 210.731 149.305 211.711 151.359C209.822 150.057 208.389 148.378 207.409 146.324Z" fill="#593D24"/>
<path fill-rule="evenodd" clip-rule="evenodd" d="M162.547 140.66C161.516 143.616 159.877 146.134 157.63 148.212C158.966 145.473 160.605 142.956 162.547 140.66Z" fill="#514534"/>
<path fill-rule="evenodd" clip-rule="evenodd" d="M207.409 146.325C208.388 148.379 209.822 150.057 211.711 151.36C211.857 152.558 212.471 153.397 213.554 153.877C216.624 158.91 218.673 164.364 219.7 170.24C213.87 170.866 207.93 171.075 201.878 170.869C201.468 170.45 201.059 170.031 200.649 169.611C200.815 168.428 200.405 167.589 199.42 167.093C198.885 165.282 198.066 163.604 196.961 162.059C200.088 156.706 203.058 151.251 205.872 145.695C206.285 146.169 206.797 146.379 207.409 146.325Z" fill="#1D1A49"/>
<path fill-rule="evenodd" clip-rule="evenodd" d="M148.412 141.92C147.944 143.029 147.124 143.658 145.954 143.808C146.422 142.699 147.242 142.07 148.412 141.92Z" fill="#573B23"/>
<path fill-rule="evenodd" clip-rule="evenodd" d="M201.263 141.289C202.433 141.439 203.253 142.068 203.721 143.177C202.551 143.027 201.731 142.398 201.263 141.289Z" fill="#514230"/>
<path fill-rule="evenodd" clip-rule="evenodd" d="M152.1 139.402C151.088 140.552 149.859 141.391 148.413 141.92C149.213 140.458 150.442 139.619 152.1 139.402Z" fill="#533922"/>
<path fill-rule="evenodd" clip-rule="evenodd" d="M163.776 138.771C163.821 139.733 163.411 140.362 162.547 140.66C162.502 139.699 162.912 139.069 163.776 138.771Z" fill="#4B4030"/>
<path fill-rule="evenodd" clip-rule="evenodd" d="M163.162 155.135C161.104 155.556 159.465 156.605 158.245 158.282C156.467 159.152 154.931 160.41 153.636 162.058C152.292 163.988 150.96 165.876 149.642 167.722C148.483 167.18 147.356 166.551 146.262 165.834C146.142 165.004 146.245 164.164 146.569 163.317C147.852 162.634 148.671 161.585 149.027 160.17C151.339 158.012 153.183 155.494 154.558 152.618C155.641 152.138 156.256 151.299 156.402 150.1C157.266 149.803 157.676 149.173 157.631 148.212C159.878 146.133 161.516 143.616 162.547 140.66C163.411 140.362 163.821 139.733 163.776 138.772C164.156 138.702 164.463 138.492 164.698 138.143C165.108 143.387 165.108 148.632 164.698 153.876C164.087 154.233 163.575 154.652 163.162 155.135Z" fill="#1D1A49"/>
<path fill-rule="evenodd" clip-rule="evenodd" d="M157.016 136.885C155.573 138.043 153.935 138.882 152.1 139.402C153.378 137.909 155.017 137.07 157.016 136.885Z" fill="#4D3621"/>
<path fill-rule="evenodd" clip-rule="evenodd" d="M193.274 136.885C196.406 137.543 199.069 139.011 201.263 141.29C198.498 139.979 195.835 138.511 193.274 136.885Z" fill="#54432F"/>
<path fill-rule="evenodd" clip-rule="evenodd" d="M193.275 136.884C195.835 138.51 198.499 139.979 201.264 141.29C201.732 142.399 202.552 143.028 203.722 143.178C204.714 144.02 205.021 145.069 204.644 146.324C202.086 151.566 199.218 156.601 196.04 161.429C194.04 158.68 191.479 156.792 188.359 155.765C187.343 155.664 186.524 155.245 185.901 154.506C185.301 148.055 185.097 141.551 185.286 134.996C187.978 135.495 190.641 136.125 193.275 136.884Z" fill="#1D1A49"/>
<path fill-rule="evenodd" clip-rule="evenodd" d="M193.275 136.885C190.641 136.125 187.977 135.496 185.285 134.997C185.096 141.552 185.301 148.055 185.9 154.507C185.49 154.507 185.081 154.507 184.671 154.507C184.671 154.087 184.671 153.668 184.671 153.248C184.671 146.745 184.671 140.241 184.671 133.738C187.765 134.303 190.633 135.353 193.275 136.885Z" fill="#362F26"/>
<path fill-rule="evenodd" clip-rule="evenodd" d="M163.777 138.772C162.913 139.07 162.503 139.699 162.548 140.66C160.606 142.956 158.967 145.474 157.632 148.213C156.768 148.51 156.358 149.14 156.403 150.101C155.32 150.58 154.705 151.42 154.559 152.618C152.247 154.776 150.403 157.293 149.028 160.17C147.745 160.853 146.926 161.902 146.57 163.317C145.748 164.332 144.723 164.647 143.497 164.261C140.783 162.399 138.018 160.616 135.201 158.912C135.554 156.921 136.271 155.033 137.352 153.247C138.434 152.768 139.049 151.928 139.195 150.73C141.653 148.632 143.907 146.324 145.955 143.807C147.125 143.657 147.945 143.028 148.413 141.919C149.859 141.39 151.089 140.551 152.101 139.402C153.935 138.882 155.574 138.043 157.017 136.884C159.295 136.387 161.548 135.758 163.777 134.996C164.187 135.206 164.596 135.416 165.006 135.625C164.419 136.617 164.009 137.666 163.777 138.772Z" fill="#1D1A49"/>
<path fill-rule="evenodd" clip-rule="evenodd" d="M180.984 104.787C180.857 106.512 180.242 107.98 179.14 109.193C179.267 107.468 179.882 105.999 180.984 104.787Z" fill="#4B402F"/>
<path fill-rule="evenodd" clip-rule="evenodd" d="M76.511 102.898C75.7385 104.741 74.5094 106.209 72.8237 107.304C73.5962 105.462 74.8253 103.993 76.511 102.898Z" fill="#53412C"/>
<path fill-rule="evenodd" clip-rule="evenodd" d="M182.213 101.641C182.273 102.933 181.863 103.982 180.984 104.787C180.924 103.495 181.333 102.446 182.213 101.641Z" fill="#483D2D"/>
<path fill-rule="evenodd" clip-rule="evenodd" d="M183.441 98.4941C183.502 99.7862 183.092 100.835 182.212 101.641C182.152 100.349 182.562 99.2997 183.441 98.4941Z" fill="#493D2D"/>
<path fill-rule="evenodd" clip-rule="evenodd" d="M80.8126 97.2344C79.8225 99.4692 78.3888 101.357 76.5107 102.899C77.5008 100.664 78.9345 98.7757 80.8126 97.2344Z" fill="#503F2C"/>
<path fill-rule="evenodd" clip-rule="evenodd" d="M224.002 95.9766C222.595 103.651 220.342 110.994 217.242 118.004C219.222 110.503 221.476 103.161 224.002 95.9766Z" fill="#443B2D"/>
<path fill-rule="evenodd" clip-rule="evenodd" d="M83.8857 92.8301C83.3123 94.6363 82.2879 96.1052 80.813 97.2355C81.3864 95.4293 82.4108 93.9604 83.8857 92.8301Z" fill="#4B3C2B"/>
<path fill-rule="evenodd" clip-rule="evenodd" d="M225.231 90.9414C225.191 92.7842 224.781 94.4626 224.002 95.9762C223.875 94.0913 224.285 92.4128 225.231 90.9414Z" fill="#3A3329"/>
<path fill-rule="evenodd" clip-rule="evenodd" d="M86.3434 89.0527C86.1314 90.7507 85.3122 92.0094 83.8853 92.8289C84.4015 91.348 85.2213 90.0893 86.3434 89.0527Z" fill="#4A3A2A"/>
<path fill-rule="evenodd" clip-rule="evenodd" d="M226.46 85.2773C226.635 87.3725 226.225 89.2605 225.231 90.9415C225.056 88.8464 225.465 86.9583 226.46 85.2773Z" fill="#55432E"/>
<path fill-rule="evenodd" clip-rule="evenodd" d="M87.5727 87.166C87.6176 88.127 87.2077 88.7564 86.3437 89.0541C86.2988 88.0931 86.7087 87.4637 87.5727 87.166Z" fill="#44382A"/>
<path fill-rule="evenodd" clip-rule="evenodd" d="M91.26 80.8711C90.6467 83.3917 89.4176 85.4899 87.5728 87.1646C88.4946 84.853 89.7237 82.7554 91.26 80.8711Z" fill="#4D3D2B"/>
<path fill-rule="evenodd" clip-rule="evenodd" d="M98.6348 65.7676C96.8164 71.1712 94.3582 76.206 91.2603 80.872C93.4062 75.6371 95.8644 70.6023 98.6348 65.7676Z" fill="#483C2D"/>
<path fill-rule="evenodd" clip-rule="evenodd" d="M52.5438 69.543C51.5129 72.499 49.8741 75.0164 47.6274 77.0952C48.9632 74.3563 50.6019 71.8388 52.5438 69.543Z" fill="#4E4332"/>
<path fill-rule="evenodd" clip-rule="evenodd" d="M196.347 41.8516C195.061 61.5355 190.759 80.4158 183.442 98.4934C189.699 80.0011 194 61.1203 196.347 41.8516Z" fill="#50402D"/>
<path fill-rule="evenodd" clip-rule="evenodd" d="M54.3871 66.3965C54.2336 67.7647 53.6191 68.8138 52.5435 69.5433C52.6969 68.175 53.3115 67.1259 54.3871 66.3965Z" fill="#493C2C"/>
<path fill-rule="evenodd" clip-rule="evenodd" d="M230.762 58.2148C230.382 66.4065 229.152 74.3779 227.075 82.1302C228.142 74.0544 229.371 66.0824 230.762 58.2148Z" fill="#4A3F2F"/>
<path fill-rule="evenodd" clip-rule="evenodd" d="M99.8638 62.6211C99.924 63.9132 99.5141 64.9623 98.6347 65.7679C98.5745 64.4758 98.9844 63.4267 99.8638 62.6211Z" fill="#463A2B"/>
<path fill-rule="evenodd" clip-rule="evenodd" d="M56.2308 63.25C56.0774 64.6182 55.4628 65.6673 54.3872 66.3968C54.5407 65.0286 55.1552 63.9794 56.2308 63.25Z" fill="#493F30"/>
<path fill-rule="evenodd" clip-rule="evenodd" d="M59.9179 55.6973C59.8419 58.3709 58.8177 60.4688 56.8452 61.9908C57.5574 59.6928 58.5817 57.595 59.9179 55.6973Z" fill="#8C8367"/>
<path fill-rule="evenodd" clip-rule="evenodd" d="M62.3762 50.0332C62.0431 52.1807 61.2236 54.0687 59.918 55.6974C60.2511 53.5499 61.0705 51.6618 62.3762 50.0332Z" fill="#4C3F2F"/>
<path fill-rule="evenodd" clip-rule="evenodd" d="M63.6055 46.8867C63.6657 48.1787 63.2558 49.2277 62.3764 50.0335C62.3162 48.7415 62.7261 47.6925 63.6055 46.8867Z" fill="#4C4131"/>
<path fill-rule="evenodd" clip-rule="evenodd" d="M231.376 38.7051C231.786 38.9148 232.195 39.1247 232.605 39.3344C232.393 45.5512 231.778 51.6349 230.762 57.5857C230.966 51.2921 231.172 44.9986 231.376 38.7051Z" fill="#5E4932"/>
<path fill-rule="evenodd" clip-rule="evenodd" d="M109.696 17.3066C109.901 17.3066 110.106 17.3066 110.311 17.3066C109.517 33.1421 106.034 48.2466 99.8638 62.6201C102.297 55.3836 104.448 48.0411 106.316 40.5927C107.588 32.8388 108.715 25.0768 109.696 17.3066Z" fill="#4D4130"/>
<path d="M288.968 126.687C281.56 153.412 265.779 172.909 241.607 185.212C241.075 181.296 240.904 177.363 241.094 173.41L241.096 173.377L241.093 173.343C240.55 167.036 238.902 161.116 236.148 155.586C235.147 151.877 233.519 148.523 231.265 145.531C231.262 145.048 231.152 144.605 230.908 144.229C230.693 143.899 230.393 143.65 230.031 143.472C230.005 143.055 229.894 142.672 229.678 142.341C229.454 141.997 229.138 141.741 228.754 141.562C228.534 140.397 227.878 139.533 226.809 139.012C225.638 137.091 224.325 135.233 222.868 133.439C222.15 132.378 221.193 131.691 220.011 131.405C218.943 129.749 217.536 128.511 215.795 127.703C215.289 126.272 215.299 124.812 215.835 123.302C217.138 121.867 217.773 120.124 217.744 118.104C220.828 111.109 223.073 103.787 224.481 96.138C225.257 94.6052 225.671 92.9171 225.728 91.082C226.731 89.3335 227.138 87.3788 226.959 85.2351L226.957 85.22L226.955 85.2051C226.796 84.1023 226.985 83.1804 227.493 82.4037L227.537 82.3367L227.558 82.2594C229.645 74.4716 230.88 66.4645 231.262 58.2378L231.262 58.2262V58.2146V58.2133V58.2121V58.2109V58.2096V58.2084V58.2072V58.206V58.2047V58.2035V58.2023V58.201V58.1998V58.1986V58.1974V58.1961V58.1949V58.1937V58.1924V58.1912V58.19V58.1887V58.1875V58.1863V58.1851V58.1838V58.1826V58.1814V58.1801V58.1789V58.1777V58.1765V58.1752V58.174V58.1728V58.1715V58.1703V58.1691V58.1679V58.1666V58.1654V58.1642V58.1629V58.1617V58.1605V58.1593V58.158V58.1568V58.1556V58.1543V58.1531V58.1519V58.1506V58.1494V58.1482V58.147V58.1457V58.1445V58.1433V58.142V58.1408V58.1396V58.1384V58.1371V58.1359V58.1347V58.1334V58.1322V58.131V58.1297V58.1285V58.1273V58.1261V58.1248V58.1236V58.1224V58.1211V58.1199V58.1187V58.1175V58.1162V58.115V58.1138V58.1125V58.1113V58.1101V58.1089V58.1076V58.1064V58.1052V58.1039V58.1027V58.1015V58.1003V58.099V58.0978V58.0966V58.0953V58.0941V58.0929V58.0916V58.0904V58.0892V58.088V58.0867V58.0855V58.0843V58.083V58.0818V58.0806V58.0794V58.0781V58.0769V58.0757V58.0744V58.0732V58.072V58.0707V58.0695V58.0683V58.0671V58.0658V58.0646V58.0634V58.0621V58.0609V58.0597V58.0585V58.0572V58.056V58.0548V58.0535V58.0523V58.0511V58.0499V58.0486V58.0474V58.0462V58.0449V58.0437V58.0425V58.0412V58.04V58.0388V58.0376V58.0363V58.0351V58.0339V58.0326V58.0314V58.0302V58.029V58.0277V58.0265V58.0253V58.024V58.0228V58.0216V58.0204V58.0191V58.0179V58.0167V58.0154V58.0142V58.013V58.0117V58.0105V58.0093V58.0081V58.0068V58.0056V58.0044V58.0031V58.0019V58.0007V57.9995V57.9982V57.997V57.9958V57.9945V57.9933V57.9921V57.9908V57.9896V57.9884V57.9872V57.9859V57.9847V57.9835V57.9822V57.981V57.9798V57.9786V57.9773V57.9761V57.9749V57.9736V57.9724V57.9712V57.97V57.9687V57.9675V57.9663V57.965V57.9638V57.9626V57.9613V57.9601V57.9589V57.9577V57.9564V57.9552V57.954V57.9527V57.9515V57.9503V57.9491V57.9478V57.9466V57.9454V57.9441V57.9429V57.9417V57.9404V57.9392V57.938V57.9368V57.9355V57.9343V57.9331V57.9318V57.9306V57.9294V57.9282V57.9269V57.9257V57.9245V57.9232V57.922V57.9208V57.9196V57.9183V57.9171V57.9159V57.9146V57.9134V57.9122V57.9109V57.9097V57.9085V57.9073V57.906V57.9048V57.9036V57.9023V57.9011V57.8999V57.8987V57.8974V57.8962V57.895V57.8937V57.8925V57.8913V57.89V57.8888V57.8876V57.8864V57.8851V57.8839V57.8827V57.8814V57.8802V57.879V57.8778V57.8765V57.8753V57.8741V57.8728V57.8716V57.8704V57.8692V57.8679V57.8667V57.8655V57.8642V57.863V57.8618V57.8605V57.8593V57.8581V57.8569V57.8556V57.8544V57.8532V57.8519V57.8507V57.8495V57.8483V57.847V57.8458V57.8446V57.8433V57.8421V57.8409V57.8396V57.8384V57.8372V57.836V57.8347V57.8335V57.8323V57.831V57.8298V57.8286V57.8274V57.8261V57.8249V57.8237V57.8224V57.8212V57.82V57.8188V57.8175V57.8163V57.8151V57.8138V57.8126V57.8114V57.8101V57.8089V57.8077V57.8065V57.8052V57.804V57.8028V57.8015V57.8003V57.7991V57.7979V57.7966V57.7954V57.7942V57.7929V57.7917V57.7905V57.7892V57.788V57.7868V57.7856V57.7843V57.7831V57.7819V57.7806V57.7794V57.7782V57.777V57.7757V57.7745V57.7733V57.772V57.7708V57.7696V57.7684V57.7671V57.7659V57.7647V57.7634V57.7622V57.761V57.7597V57.7585V57.7573V57.7561V57.7548V57.7536V57.7524V57.7511V57.7499V57.7487V57.7475V57.7462V57.745V57.7438V57.7425V57.7413V57.7401V57.7389V57.7376V57.7364V57.7352V57.7339V57.7327V57.7315V57.7302V57.729V57.7278V57.7266V57.7253V57.7241V57.7229V57.7216V57.7204V57.7192V57.718V57.7167V57.7155V57.7143V57.713V57.7118V57.7106V57.7094V57.7081V57.7069V57.7057V57.7044V57.7032V57.702V57.7007V57.6995V57.6983V57.6971V57.6958V57.6946V57.6934V57.6921V57.6909V57.6897V57.6885V57.6872V57.686V57.6848V57.6835V57.6823V57.6811V57.6798V57.6786V57.6774V57.6762V57.6749V57.6737V57.6725V57.6712V57.67V57.6688V57.6676V57.6663V57.6651V57.6639V57.6626V57.6614V57.6602V57.659V57.6577V57.6565V57.6553V57.654V57.6528V57.6516V57.6504V57.6491V57.6479V57.6467V57.6454V57.6442V57.643V57.6417V57.6405V57.6393V57.6381V57.6368V57.6356V57.6344V57.6331V57.6319V57.6307V57.6295V57.6282V57.6276C232.243 51.8726 232.85 45.9946 233.082 39.9937C249.402 44.8081 263.558 53.299 275.558 65.4711C290.126 83.4434 294.594 103.832 288.968 126.687Z" fill="#1D1A49" stroke="black"/>
<path fill-rule="evenodd" clip-rule="evenodd" d="M72.2091 6.60742C72.0634 7.41992 72.2681 8.04927 72.8236 8.49549C71.6173 21.834 68.5446 34.6309 63.6055 46.8861C67.9786 33.7167 70.8467 20.2904 72.2091 6.60742Z" fill="#50402E"/>
<path fill-rule="evenodd" clip-rule="evenodd" d="M231.376 38.7053C231.172 44.9988 230.966 51.2924 230.762 57.5859C230.762 57.7956 230.762 58.0055 230.762 58.2152C229.37 66.0828 228.141 74.0548 227.074 82.1306C226.49 83.0237 226.285 84.0722 226.46 85.2774C225.465 86.9584 225.056 88.8465 225.231 90.9416C224.284 92.413 223.875 94.0915 224.002 95.9764C221.476 103.16 219.222 110.503 217.242 118.004C216.156 119.446 215.541 121.124 215.398 123.039C214.793 124.301 213.973 125.35 212.94 126.185C212.649 125.3 212.035 124.881 211.096 124.927C210.805 124.042 210.191 123.622 209.253 123.668C201.129 118.027 192.115 114.88 182.212 114.228C180.862 113.809 179.428 113.389 177.911 112.969C178.677 111.822 179.087 110.563 179.14 109.193C180.242 107.981 180.856 106.512 180.983 104.787C181.863 103.982 182.273 102.933 182.212 101.641C183.092 100.835 183.502 99.7859 183.442 98.4938C190.759 80.4163 195.061 61.536 196.347 41.8521C196.953 39.0389 197.158 36.1019 196.962 33.0411C197.465 31.2755 197.772 29.3875 197.883 27.377C209.193 30.7131 220.357 34.4892 231.376 38.7053Z" fill="#D8E5EB"/>
<path fill-rule="evenodd" clip-rule="evenodd" d="M196.962 33.0419C197.158 36.1026 196.953 39.0396 196.347 41.8528C194 61.1215 189.699 80.0023 183.442 98.4946C182.562 99.3002 182.153 100.349 182.213 101.641C181.333 102.447 180.923 103.496 180.984 104.788C179.882 106 179.267 107.469 179.14 109.194C178.259 110.464 177.44 111.828 176.682 113.284C164.173 113.023 152.702 116.275 142.267 123.039C140.086 123.809 138.243 125.068 136.736 126.815C135.566 126.965 134.747 127.595 134.278 128.704C129.54 132.088 125.647 136.283 122.602 141.291C121.086 142.7 119.857 144.379 118.915 146.325C118.383 147.007 117.769 147.111 117.071 146.64C101.447 135.074 86.2885 122.907 71.5947 110.138C72.1564 109.253 72.5657 108.309 72.8238 107.306C74.5095 106.211 75.7386 104.742 76.5111 102.9C78.3891 101.359 79.8229 99.4707 80.8129 97.2359C82.2878 96.1056 83.3122 94.6367 83.8856 92.8304C85.3126 92.011 86.1318 90.7523 86.3438 89.0543C87.2078 88.7566 87.6177 88.1273 87.5729 87.1662C89.4177 85.4915 90.6468 83.3933 91.2602 80.8727C94.3581 76.2067 96.8163 71.1719 98.6347 65.7682C99.5141 64.9627 99.924 63.9135 99.8638 62.6215C106.034 48.248 109.517 33.1435 110.311 17.3081C110.311 14.7907 110.311 12.2733 110.311 9.75586C139.488 13.8859 168.372 19.55 196.962 26.7484C196.962 28.8462 196.962 30.9441 196.962 33.0419Z" fill="#1D1A49"/>
<path fill-rule="evenodd" clip-rule="evenodd" d="M109.696 17.3073C108.715 25.0775 107.588 32.8395 106.316 40.5934C104.447 48.0418 102.296 55.3842 99.8635 62.6208C98.9841 63.4264 98.5742 64.4755 98.6344 65.7676C95.864 70.6023 93.4058 75.6371 91.2599 80.8721C89.7235 82.7563 88.4944 84.854 87.5726 87.1656C86.7085 87.4633 86.2986 88.0926 86.3435 89.0537C85.2213 90.0902 84.4015 91.3489 83.8853 92.8298C82.4104 93.9601 81.386 95.429 80.8126 97.2352C78.9345 98.7765 77.5008 100.665 76.5108 102.899C74.8251 103.994 73.596 105.463 72.8235 107.305C71.9644 108.318 70.9399 108.842 69.7508 108.878C60.8399 101.011 51.929 93.1445 43.0181 85.2775C44.3526 82.5191 45.8889 79.7921 47.6272 77.0959C49.8738 75.0172 51.5126 72.4998 52.5435 69.5437C53.6192 68.8143 54.2337 67.7651 54.3872 66.3969C55.4628 65.6675 56.0773 64.6184 56.2308 63.2501C56.7459 63.0349 56.9508 62.6155 56.8453 61.9914C58.8178 60.4695 59.842 58.3716 59.9181 55.6979C61.2237 54.0693 62.0432 52.1812 62.3762 50.0337C63.2557 49.2279 63.6656 48.179 63.6053 46.887C68.5444 34.6317 71.6172 21.8348 72.8235 8.49638C72.8235 7.44743 72.8235 6.39855 72.8235 5.34961C85.1408 6.34374 97.4317 7.60244 109.696 9.12573C109.696 11.8529 109.696 14.5802 109.696 17.3073Z" fill="#D8E5EB"/>
<path fill-rule="evenodd" clip-rule="evenodd" d="M72.2088 6.60797C70.8464 20.2909 67.9783 33.7171 63.6052 46.8865C62.7258 47.6923 62.3159 48.7413 62.3761 50.0333C61.0704 51.6619 60.251 53.55 59.9179 55.6974C58.5816 57.5952 57.5574 59.693 56.8452 61.991C56.9506 62.615 56.7457 63.0344 56.2306 63.2497C55.155 63.9791 54.5404 65.0282 54.387 66.3964C53.3114 67.1258 52.6968 68.175 52.5434 69.5432C50.6015 71.8391 48.9627 74.3565 47.627 77.0954C45.598 79.2818 43.6519 81.5896 41.7888 84.0183C28.0827 71.0316 14.5627 57.8151 1.22886 44.3691C0.870147 42.6342 1.07499 40.9559 1.84341 39.3343C6.39202 26.5132 11.0011 13.7164 15.6707 0.943805C16.6949 0.734023 17.7191 0.524237 18.7434 0.314453C36.5722 1.74549 54.394 3.21398 72.2088 4.71992C72.2088 5.34927 72.2088 5.97862 72.2088 6.60797Z" fill="#1D1A49"/>
</g>
<defs>
<filter id="filter0_f_692_489" x="66" y="169" width="273" height="121" filterUnits="userSpaceOnUse" color-interpolation-filters="sRGB">
<feFlood flood-opacity="0" result="BackgroundImageFix"/>
<feBlend mode="normal" in="SourceGraphic" in2="BackgroundImageFix" result="shape"/>
<feGaussianBlur stdDeviation="17.5" result="effect1_foregroundBlur_692_489"/>
</filter>
<clipPath id="clip0_692_489">
<rect width="338" height="253" fill="white"/>
</clipPath>
</defs>
</svg>
