<svg width="36" height="33" viewBox="0 0 36 33" fill="none" xmlns="http://www.w3.org/2000/svg">
<path d="M3.40854 0.810679C4.8764 1.36745 5.56984 2.38483 5.48885 3.86282C5.44836 4.50058 5.12948 4.97636 4.53221 5.29018C3.94507 5.59388 3.41867 5.76597 2.953 5.80646C2.49746 5.84696 2.05204 5.77103 1.61674 5.57869C1.18144 5.38635 0.994166 5.04723 1.0549 4.56131C1.0549 4.05516 1.556 3.16938 2.5582 1.90398C2.44684 1.084 2.73029 0.71957 3.40854 0.810679ZM2.31524 4.2728C2.31524 4.5765 2.4924 4.72835 2.84671 4.72835C3.96026 4.54613 4.51703 4.10577 4.51703 3.40727C4.44617 2.83025 4.25383 2.54174 3.94001 2.54174C3.63631 2.54174 3.29213 2.7847 2.90745 3.27061C2.53289 3.7464 2.33549 4.08046 2.31524 4.2728ZM19.3222 19.7309C20.1219 19.245 20.3598 19.5841 20.0359 20.7483C19.3778 21.3557 18.9223 21.7454 18.6692 21.9175C18.4161 22.0896 17.9707 22.3983 17.333 22.8438C16.7053 23.2791 15.9005 23.7751 14.9186 24.3319C13.9366 24.8785 12.6459 25.3543 11.0465 25.7592C9.44701 26.1642 7.802 26.2907 6.11143 26.1389C4.42086 25.987 3.15546 25.5973 2.31524 24.9696C1.48514 24.342 0.948611 23.603 0.705655 22.7527C0.462699 21.9023 0.482945 21.0671 0.766394 20.2472C1.05997 19.4272 1.48514 18.8046 2.04191 18.3794C2.89226 17.7822 3.17065 17.9037 2.87708 18.7439C2.15833 19.5841 1.90525 20.561 2.11784 21.6745C2.34055 22.778 3.14028 23.5524 4.51703 23.9978C5.89378 24.4331 7.68558 24.5242 9.89243 24.2711C12.1094 24.0181 14.0936 23.3094 15.8449 22.1453C17.414 21.1836 18.5731 20.3788 19.3222 19.7309ZM8.73839 31.332C8.72827 31.2207 8.72321 31.1144 8.72321 31.0132C8.73333 30.9221 8.75864 30.8259 8.79913 30.7247C8.84975 30.6335 8.88518 30.5374 8.90543 30.4361C8.93579 30.345 8.93579 30.2489 8.90543 30.1476C8.87506 30.0464 8.82444 29.9604 8.75358 29.8895C8.69284 29.8288 8.59667 29.763 8.46507 29.6921C8.34359 29.6314 8.20186 29.601 8.03989 29.601C7.88805 29.601 7.74126 29.6263 7.59954 29.6769C7.45781 29.7275 7.33127 29.8034 7.21992 29.9047C7.11869 30.0059 7.03264 30.1324 6.96178 30.2843C6.89091 30.4361 6.8403 30.588 6.80993 30.7398C6.78968 30.8917 6.78968 31.0334 6.80993 31.165C6.8403 31.3067 6.90104 31.4485 6.99215 31.5902C7.08325 31.742 7.18449 31.8534 7.29584 31.9243C7.4072 32.0052 7.55398 32.0812 7.7362 32.152C7.92854 32.2229 8.10569 32.2482 8.26767 32.2279C8.43976 32.2178 8.56124 32.1875 8.6321 32.1368C8.71308 32.0862 8.77382 32.0154 8.81432 31.9243C8.86493 31.8331 8.8953 31.7623 8.90543 31.7117C8.91555 31.6712 8.8953 31.6256 8.84469 31.575C8.79407 31.5244 8.75864 31.4434 8.73839 31.332ZM24.9102 2.23805C25.2139 2.17731 25.4619 2.19249 25.6542 2.2836C25.8466 2.36459 25.9427 2.5873 25.9427 2.95173C25.8516 3.39715 25.5631 3.70591 25.0772 3.878C24.5913 4.05009 23.8928 4.46008 22.9817 5.10797C22.0706 5.74573 21.2658 6.16078 20.5673 6.35312C20.2231 6.33287 20.1067 6.18102 20.2181 5.89757C20.4205 5.30031 21.2051 4.58156 22.5717 3.74134C22.8045 3.57937 23.174 3.30098 23.6802 2.90618C24.1965 2.51137 24.6065 2.28866 24.9102 2.23805ZM24.4546 21.8568C24.7684 21.5632 25.0569 21.4417 25.3201 21.4923C25.5834 21.5328 25.7453 21.7606 25.8061 22.1756C25.7656 22.6008 25.5935 23.0766 25.2898 23.603C24.9962 24.1193 24.571 24.8583 24.0143 25.82C23.4575 26.7817 22.0858 27.7788 19.8992 28.8114C18.3908 29.0543 18.1985 28.6545 19.3222 27.6118C20.1928 26.8829 20.9318 26.2856 21.5391 25.82C22.1465 25.3644 22.678 24.6912 23.1335 23.8004C23.5891 22.9096 24.0294 22.2617 24.4546 21.8568ZM29.9667 23.6486V25C29.1366 25 28.5748 24.9443 28.2812 24.833C27.9876 24.7115 27.7497 24.5698 27.5675 24.4078C27.3853 24.2357 27.2385 24.0181 27.1271 23.7548C27.0259 23.4916 26.9702 23.193 26.9601 22.8589C26.95 22.5148 26.9702 22.1048 27.0208 21.629C27.0816 21.1431 27.1474 20.6521 27.2182 20.1561C27.2992 19.66 27.3701 19.1387 27.4308 18.592C27.4916 18.0454 27.5422 17.5848 27.5827 17.2102C27.6232 16.8255 27.8358 16.2586 28.2204 15.5095C28.3824 15.1451 28.6152 14.9426 28.9189 14.9021C29.2328 14.8616 29.3998 15.0894 29.42 15.5854C29.339 16.4054 29.2682 17.0027 29.2074 17.3773C29.1568 17.7518 29.1012 18.1719 29.0404 18.6376C28.9797 19.0931 28.8886 19.7258 28.7671 20.5357C28.6456 21.3455 28.5798 21.8669 28.5697 22.0997C28.5596 22.3325 28.5697 22.5401 28.6001 22.7223C28.6304 22.8944 28.7013 23.0513 28.8126 23.193C28.924 23.3246 29.0455 23.4208 29.1771 23.4815C29.3087 23.5423 29.5719 23.5979 29.9667 23.6486ZM29.2074 8.70675C29.0252 8.5954 28.8228 8.61564 28.6001 8.76749C27.4966 9.58747 26.9297 10.286 26.8994 10.863C26.8487 11.2679 26.9146 11.5412 27.0968 11.683C27.2891 11.8247 27.4966 11.8905 27.7193 11.8804C27.9421 11.8702 28.1141 11.8804 28.2356 11.9107C28.3672 11.9411 28.4077 12.0423 28.3571 12.2144C27.4561 13.2166 27.0057 13.8392 27.0057 14.0822C27.0158 14.2745 27.0765 14.4061 27.1879 14.477C27.3094 14.5478 27.5169 14.5225 27.8105 14.401C29.086 13.5406 29.7237 12.7358 29.7237 11.9867C29.7642 11.3388 29.3137 10.944 28.3723 10.8023C28.3115 10.6403 28.4583 10.4176 28.8126 10.1341C29.167 9.85067 29.3441 9.64315 29.3441 9.51155C29.4453 9.08637 29.3998 8.81811 29.2074 8.70675ZM34.7499 2.23805C35.0536 2.17731 35.3016 2.19249 35.4939 2.2836C35.6863 2.36459 35.7824 2.5873 35.7824 2.95173C35.6913 3.39715 35.4028 3.70591 34.9169 3.878C34.431 4.05009 33.7325 4.46008 32.8214 5.10797C31.9103 5.74573 31.1055 6.16078 30.407 6.35312C30.0629 6.33287 29.9464 6.18102 30.0578 5.89757C30.2603 5.30031 31.0448 4.58156 32.4114 3.74134C32.6443 3.57937 33.0138 3.30098 33.5199 2.90618C34.0362 2.51137 34.4462 2.28866 34.7499 2.23805ZM29.9667 23.6182C30.2501 23.6081 30.5184 23.5625 30.7715 23.4815C31.0246 23.4005 31.3789 23.1728 31.8344 22.7982C31.1157 22.4237 30.731 21.9934 30.6804 21.5075C30.6399 21.0115 30.6804 20.5964 30.8018 20.2624C30.9334 19.9283 31.1764 19.579 31.5307 19.2146C31.8952 18.8502 32.3203 18.6933 32.8062 18.7439C33.3023 18.7844 33.687 18.9514 33.9603 19.245C34.2336 19.5284 34.4209 20.0396 34.5221 20.7786C34.512 21.4468 34.3804 22.0845 34.1273 22.6919C33.8742 23.2993 33.2871 23.8409 32.3659 24.3167C31.4447 24.7925 30.65 25.0202 29.9819 25L29.9667 23.6182Z" fill="#1D1A49"/>
</svg>
