<svg width="125" height="126" viewBox="0 0 125 126" fill="none" xmlns="http://www.w3.org/2000/svg">
<g clip-path="url(#clip0_32_461)">
<path d="M79.0908 126.229C77.4776 125.887 75.954 125.608 74.469 125.191C69.9355 123.92 66.1617 121.272 62.5928 118.342C59.1542 115.518 55.8263 112.558 52.4749 109.629C47.6037 105.372 42.7036 101.146 37.9106 96.8017C32.6642 92.0465 27.4664 87.2337 22.3707 82.3179C20.4518 80.4666 19.1387 78.1235 18.2559 75.5427C17.4296 73.1268 18.3988 71.3972 19.914 69.6585C21.817 67.4748 26.5631 67.6139 28.7029 68.8395C30.44 69.8345 32.1048 71.02 33.6146 72.3359C38.2355 76.3637 42.7625 80.4993 47.3354 84.5824C48.1297 85.2916 48.9462 85.9815 49.8017 86.6134C50.087 86.8241 50.5263 86.826 50.8952 86.9233C50.8187 86.5547 50.86 86.087 50.647 85.8331C48.9352 83.7925 47.2645 81.7059 45.4139 79.7957C39.5029 73.6948 33.5252 67.6586 27.5623 61.6082C24.544 58.5456 21.47 55.5373 18.4851 52.4428C17.0835 50.9899 15.8729 49.3828 15.3037 47.365C14.2062 43.4747 16.6347 39.1488 20.5698 38.3736C23.5115 37.7941 26.2064 38.7667 28.4545 40.6116C30.8348 42.5651 33.1082 44.6748 35.2494 46.8894C41.6834 53.544 48.0204 60.2925 54.4212 66.9795C55.4727 68.078 56.6373 69.0717 57.7923 70.0641C58.018 70.2579 58.4416 70.2212 58.7739 70.2909C58.7951 69.914 58.9831 69.4123 58.8101 69.1806C57.7644 67.7803 56.6707 66.4118 55.5291 65.0879C51.6026 60.5343 47.6533 56.0004 43.7057 51.4651C40.8314 48.1629 37.938 44.8773 35.0677 41.5716C31.6273 37.6092 28.1219 33.6989 24.8171 29.6259C23.7484 28.3088 22.9265 26.6245 22.5122 24.9772C21.6451 21.5303 23.5072 18.3805 26.8262 16.9808C29.5815 15.8188 32.1145 16.3791 34.5058 17.9324C37.1576 19.6549 39.1312 22.0841 41.1581 24.4566C44.2236 28.0447 47.2921 31.6306 50.3981 35.1835C54.3822 39.7409 58.4025 44.2667 62.4119 48.8019C64.2781 50.9129 66.1492 53.0197 68.036 55.1121C68.258 55.3584 68.5944 55.5013 68.8778 55.6921C68.9643 55.622 69.0508 55.5518 69.1373 55.4816C68.9931 55.1289 68.9085 54.7344 68.6956 54.4297C65.6027 50.0036 62.5549 45.5441 59.3714 41.1838C55.1325 35.3781 50.7459 29.6802 46.5105 23.8719C45.4238 22.3815 44.4018 20.7402 43.8161 19.0102C42.7528 15.8696 44.9831 12.5904 47.4224 11.2358C50.6999 9.41576 54.5581 10.1263 57.1743 13.2606C60.9763 17.8154 64.6847 22.4491 68.3919 27.0821C73.1948 33.0842 77.9477 39.1262 82.7413 45.1357C84.9003 47.8424 87.0526 50.5576 89.3075 53.1833C90.9349 55.0782 93.0993 55.904 95.5719 55.3561C97.9328 54.833 99.6163 53.4284 100.119 50.9369C100.267 50.2004 100.258 49.4274 100.276 48.6701C100.365 44.942 101 41.3367 102.631 37.9491C106.054 30.8382 112.167 28.7854 118.89 29.1628C123.221 29.4059 126.141 33.7182 124.136 37.9309C122.794 40.7509 121.453 43.5709 120.108 46.3894C117.498 51.8582 116.875 57.5676 117.822 63.534C118.638 68.6697 119.361 73.8248 119.939 78.9921C120.353 82.6917 120.741 86.4337 120.637 90.1427C120.481 95.7162 119.117 101.053 116.12 105.865C112.834 111.143 108.554 115.437 103.42 118.932C99.3308 121.716 94.9995 123.941 90.1937 125.161C88.6542 125.552 87.0753 125.787 85.4541 126.161C83.3286 126.229 81.2633 126.229 79.0908 126.229ZM50.5471 11.2467C50.3213 11.283 50.0943 11.3134 49.8698 11.3565C46.0534 12.0894 42.9034 16.7981 45.5761 20.5845C46.9828 22.5774 48.2712 24.6557 49.7146 26.6206C55.3834 34.3372 61.1029 42.0165 66.7773 49.729C67.8387 51.1716 68.801 52.6893 69.7664 54.1996C70.2421 54.9439 70.3177 55.7677 69.5216 56.3434C68.7888 56.8732 68.0764 56.6317 67.4942 55.9778C67.342 55.8068 67.1772 55.647 67.0256 55.4756C64.9533 53.1336 62.8708 50.8006 60.8132 48.4459C53.5361 40.1181 46.3095 31.7456 38.9643 23.4786C37.2858 21.5895 35.3595 19.8342 33.2779 18.412C30.6272 16.601 27.2676 17.155 25.0789 19.3244C23.0072 21.378 22.6928 24.2108 24.3639 27.1018C25.1999 28.548 26.1375 29.9692 27.2295 31.2277C32.7775 37.6215 38.4015 43.9491 43.9781 50.3182C47.9472 54.8514 51.8945 59.4038 55.8276 63.9681C57.1447 65.4966 58.4257 67.06 59.649 68.664C60.2415 69.4408 60.2318 70.3244 59.4311 71.0248C58.6434 71.7139 57.8741 71.4379 57.1569 70.8708C56.7385 70.5399 56.3137 70.2081 55.944 69.8262C50.6135 64.3194 45.3236 58.7729 39.9575 53.3013C36.0886 49.3563 32.1536 45.4746 28.1794 41.6358C26.8416 40.3436 25.1089 39.6574 23.2685 39.3311C18.8193 38.5424 15.1901 42.4004 16.2141 46.8214C16.6893 48.8733 17.9286 50.4746 19.3607 51.9177C25.1098 57.7112 30.9656 63.4006 36.6369 69.2687C41.6691 74.4755 46.5195 79.8587 51.4251 85.1871C52.2739 86.109 52.2796 86.9868 51.6221 87.629C50.9629 88.2729 50.1231 88.2267 49.1712 87.4214C47.6574 86.1408 46.1637 84.8361 44.6741 83.5274C40.0051 79.4253 35.3527 75.3043 30.6714 71.2165C28.7422 69.5319 26.4552 68.8975 23.9007 68.9417C21.186 68.9887 17.7864 72.2556 19.3259 75.67C20.3194 77.8735 21.414 80.0195 23.1764 81.713C26.6413 85.0426 30.079 88.4058 33.6547 91.6136C41.9713 99.0746 50.2912 106.535 58.7592 113.822C62.2722 116.845 65.9587 119.777 69.9334 122.128C77.3215 126.5 85.2103 126.065 93.0309 123.242C100.235 120.641 106.339 116.326 111.401 110.59C114.798 106.741 117.419 102.415 118.61 97.3546C119.837 92.1388 120.041 86.8545 119.333 81.5496C118.539 75.612 117.753 69.6716 116.817 63.7555C115.86 57.6996 116.459 51.8924 119.077 46.3273C120.473 43.3606 121.959 40.4344 123.284 37.4366C124.619 34.4144 123.186 31.3953 120.026 30.4376C119.164 30.1765 118.218 30.0085 117.326 30.0628C109.462 30.5419 105.577 33.3356 102.82 40.0576C101.549 43.157 101.356 46.4279 101.254 49.7174C101.183 51.9884 100.321 53.8732 98.4038 55.1752C95.0107 57.4796 91.0073 56.8486 88.1215 53.3543C84.6254 49.121 81.2893 44.7558 77.8683 40.46C73.7109 35.2395 69.5568 30.016 65.364 24.824C62.3935 21.1456 59.3984 17.4856 56.3399 13.8805C54.9085 12.1932 53.0768 11.1343 50.5471 11.2467Z" fill="#F8B035"/>
<path d="M50.6483 11.2405C53.0768 11.1343 54.9085 12.1933 56.3399 13.8805C59.3984 17.4856 62.3935 21.1457 65.364 24.8241C69.5568 30.0161 73.7109 35.2395 77.8683 40.4601C81.2892 44.7558 84.6254 49.1211 88.1215 53.3544C91.0073 56.8486 95.0107 57.4797 98.4037 55.1753C100.321 53.8733 101.183 51.9885 101.254 49.7175C101.356 46.428 101.549 43.1571 102.82 40.0576C105.577 33.3357 109.462 30.542 117.326 30.0629C118.218 30.0086 119.164 30.1765 120.026 30.4377C123.186 31.3954 124.619 34.4145 123.284 37.4366C121.959 40.4345 120.473 43.3607 119.077 46.3273C116.459 51.8925 115.86 57.6997 116.817 63.7556C117.753 69.6717 118.539 75.6121 119.332 81.5497C120.041 86.8546 119.837 92.1389 118.61 97.3546C117.419 102.415 114.798 106.741 111.401 110.59C106.339 116.327 100.235 120.641 93.0308 123.242C85.2102 126.065 77.3215 126.5 69.9334 122.129C65.9586 119.777 62.2722 116.845 58.7591 113.822C50.2911 106.535 41.9713 99.0746 33.6547 91.6137C30.0789 88.4059 26.6413 85.0427 23.1763 81.7131C21.414 80.0196 20.3194 77.8736 19.3259 75.6701C17.7863 72.2557 21.186 68.9888 23.9007 68.9418C26.4552 68.8975 28.7422 69.532 30.6714 71.2166C35.3527 75.3044 40.0051 79.4254 44.674 83.5274C46.1637 84.8362 47.6574 86.1408 49.1712 87.4215C50.1231 88.2268 50.9629 88.2729 51.6221 87.6291C52.2795 86.9869 52.2739 86.1091 51.4251 85.1871C46.5194 79.8588 41.6691 74.4756 36.6369 69.2688C30.9655 63.4007 25.1098 57.7113 19.3606 51.9178C17.9286 50.4747 16.6893 48.8734 16.214 46.8215C15.1901 42.4005 18.8192 38.5424 23.2685 39.3312C25.1089 39.6575 26.8415 40.3436 28.1793 41.6359C32.1535 45.4747 36.0886 49.3564 39.9575 53.3014C45.3236 58.773 50.6135 64.3195 55.9439 69.8263C56.3137 70.2082 56.7385 70.54 57.1569 70.8709C57.8741 71.438 58.6434 71.714 59.4311 71.0249C60.2317 70.3245 60.2414 69.4409 59.649 68.6641C58.4256 67.0601 57.1447 65.4967 55.8276 63.9682C51.8944 59.4038 47.9471 54.8514 43.9781 50.3183C38.4015 43.9492 32.7774 37.6216 27.2295 31.2278C26.1375 29.9693 25.1998 28.5481 24.3639 27.1019C22.6928 24.2109 23.0072 21.3781 25.0789 19.3245C27.2676 17.155 30.6272 16.6011 33.2779 18.4121C35.3595 19.8343 37.2857 21.5896 38.9642 23.4787C46.3095 31.7457 53.5361 40.1182 60.8131 48.4459C62.8708 50.8007 64.9533 53.1337 67.0255 55.4757C67.1772 55.6471 67.3419 55.8069 67.4942 55.9779C68.0764 56.6317 68.7888 56.8733 69.5215 56.3435C70.3177 55.7678 70.2421 54.944 69.7663 54.1997C68.801 52.6894 67.8387 51.1716 66.7773 49.729C61.1029 42.0165 55.3833 34.3373 49.7146 26.6207C48.2711 24.6557 46.9828 22.5775 45.576 20.5846C42.9034 16.7982 46.0534 12.0895 49.8698 11.3566C50.0943 11.3135 50.3212 11.2831 50.6483 11.2405Z" fill="#FFD059"/>
<path d="M104 27C102.172 19.6243 91.625 5.50867 86 5" stroke="#8A8A8A" stroke-width="2" stroke-linecap="round"/>
<path d="M94 26C92.9844 21.9769 87.125 14.2775 84 14" stroke="#8A8A8A" stroke-width="2" stroke-linecap="round"/>
<path d="M15.9995 97.9998C17.8276 105.375 28.3745 119.491 33.9995 120" stroke="#8A8A8A" stroke-width="2" stroke-linecap="round"/>
<path d="M25.9995 98.9998C27.0151 103.023 32.8745 110.722 35.9995 111" stroke="#8A8A8A" stroke-width="2" stroke-linecap="round"/>
</g>
<defs>
<clipPath id="clip0_32_461">
<rect width="125" height="126" fill="white"/>
</clipPath>
</defs>
</svg>
