<svg width="86" height="54" viewBox="0 0 86 54" fill="none" xmlns="http://www.w3.org/2000/svg">
<path d="M29.3558 0.810679C30.8237 1.36745 31.5171 2.38483 31.4361 3.86282C31.3956 4.50058 31.0767 4.97636 30.4795 5.29018C29.8923 5.59388 29.3659 5.76597 28.9003 5.80646C28.4447 5.84696 27.9993 5.77103 27.564 5.57869C27.1287 5.38635 26.9414 5.04723 27.0022 4.56131C27.0022 4.05516 27.5033 3.16938 28.5055 1.90398C28.3941 1.084 28.6776 0.71957 29.3558 0.810679ZM28.2625 4.2728C28.2625 4.5765 28.4397 4.72835 28.794 4.72835C29.9075 4.54613 30.4643 4.10577 30.4643 3.40727C30.3934 2.83025 30.2011 2.54174 29.8873 2.54174C29.5836 2.54174 29.2394 2.7847 28.8547 3.27061C28.4802 3.7464 28.2828 4.08046 28.2625 4.2728ZM45.2694 19.7309C46.0692 19.245 46.3071 19.5841 45.9831 20.7483C45.3251 21.3557 44.8696 21.7454 44.6165 21.9175C44.3634 22.0896 43.918 22.3983 43.2802 22.8438C42.6526 23.2791 41.8478 23.7751 40.8659 24.3319C39.8839 24.8785 38.5932 25.3543 36.9937 25.7592C35.3943 26.1642 33.7493 26.2907 32.0587 26.1389C30.3681 25.987 29.1027 25.5973 28.2625 24.9696C27.4324 24.342 26.8959 23.603 26.6529 22.7527C26.41 21.9023 26.4302 21.0671 26.7137 20.2472C27.0072 19.4272 27.4324 18.8046 27.9892 18.3794C28.8395 17.7822 29.1179 17.9037 28.8243 18.7439C28.1056 19.5841 27.8525 20.561 28.0651 21.6745C28.2878 22.778 29.0875 23.5524 30.4643 23.9978C31.841 24.4331 33.6328 24.5242 35.8397 24.2711C38.0567 24.0181 40.0408 23.3094 41.7921 22.1453C43.3612 21.1836 44.5203 20.3788 45.2694 19.7309ZM34.6857 31.332C34.6755 31.2207 34.6705 31.1144 34.6705 31.0132C34.6806 30.9221 34.7059 30.8259 34.7464 30.7247C34.797 30.6335 34.8324 30.5374 34.8527 30.4361C34.8831 30.345 34.8831 30.2489 34.8527 30.1476C34.8223 30.0464 34.7717 29.9604 34.7008 29.8895C34.6401 29.8288 34.5439 29.763 34.4123 29.6921C34.2909 29.6314 34.1491 29.601 33.9872 29.601C33.8353 29.601 33.6885 29.6263 33.5468 29.6769C33.4051 29.7275 33.2785 29.8034 33.1672 29.9047C33.066 30.0059 32.9799 30.1324 32.909 30.2843C32.8382 30.4361 32.7876 30.588 32.7572 30.7398C32.7369 30.8917 32.7369 31.0334 32.7572 31.165C32.7876 31.3067 32.8483 31.4485 32.9394 31.5902C33.0305 31.742 33.1318 31.8534 33.2431 31.9243C33.3545 32.0052 33.5012 32.0812 33.6835 32.152C33.8758 32.2229 34.053 32.2482 34.2149 32.2279C34.387 32.2178 34.5085 32.1875 34.5794 32.1368C34.6604 32.0862 34.7211 32.0154 34.7616 31.9243C34.8122 31.8331 34.8426 31.7623 34.8527 31.7117C34.8628 31.6712 34.8426 31.6256 34.792 31.575C34.7413 31.5244 34.7059 31.4434 34.6857 31.332ZM50.8574 2.23805C51.1611 2.17731 51.4091 2.19249 51.6015 2.2836C51.7938 2.36459 51.89 2.5873 51.89 2.95173C51.7989 3.39715 51.5104 3.70591 51.0245 3.878C50.5385 4.05009 49.84 4.46008 48.929 5.10797C48.0179 5.74573 47.2131 6.16078 46.5146 6.35312C46.1704 6.33287 46.054 6.18102 46.1653 5.89757C46.3678 5.30031 47.1523 4.58156 48.519 3.74134C48.7518 3.57937 49.1213 3.30098 49.6275 2.90618C50.1437 2.51137 50.5537 2.28866 50.8574 2.23805ZM50.4019 21.8568C50.7157 21.5632 51.0042 21.4417 51.2674 21.4923C51.5306 21.5328 51.6926 21.7606 51.7533 22.1756C51.7128 22.6008 51.5407 23.0766 51.237 23.603C50.9435 24.1193 50.5183 24.8583 49.9615 25.82C49.4048 26.7817 48.0331 27.7788 45.8465 28.8114C44.3381 29.0543 44.1458 28.6545 45.2694 27.6118C46.14 26.8829 46.879 26.2856 47.4864 25.82C48.0938 25.3644 48.6253 24.6912 49.0808 23.8004C49.5364 22.9096 49.9767 22.2617 50.4019 21.8568ZM55.914 23.6486V25C55.0839 25 54.522 24.9443 54.2284 24.833C53.9349 24.7115 53.697 24.5698 53.5148 24.4078C53.3325 24.2357 53.1858 24.0181 53.0744 23.7548C52.9732 23.4916 52.9175 23.193 52.9074 22.8589C52.8972 22.5148 52.9175 22.1048 52.9681 21.629C53.0288 21.1431 53.0946 20.6521 53.1655 20.1561C53.2465 19.66 53.3174 19.1387 53.3781 18.592C53.4388 18.0454 53.4895 17.5848 53.5299 17.2102C53.5704 16.8255 53.783 16.2586 54.1677 15.5095C54.3297 15.1451 54.5625 14.9426 54.8662 14.9021C55.18 14.8616 55.3471 15.0894 55.3673 15.5854C55.2863 16.4054 55.2155 17.0027 55.1547 17.3773C55.1041 17.7518 55.0484 18.1719 54.9877 18.6376C54.9269 19.0931 54.8358 19.7258 54.7144 20.5357C54.5929 21.3455 54.5271 21.8669 54.517 22.0997C54.5068 22.3325 54.517 22.5401 54.5473 22.7223C54.5777 22.8944 54.6486 23.0513 54.7599 23.193C54.8713 23.3246 54.9927 23.4208 55.1243 23.4815C55.2559 23.5423 55.5191 23.5979 55.914 23.6486ZM55.1547 8.70675C54.9725 8.5954 54.77 8.61564 54.5473 8.76749C53.4439 9.58747 52.877 10.286 52.8466 10.863C52.796 11.2679 52.8618 11.5412 53.044 11.683C53.2364 11.8247 53.4439 11.8905 53.6666 11.8804C53.8893 11.8702 54.0614 11.8804 54.1829 11.9107C54.3145 11.9411 54.355 12.0423 54.3044 12.2144C53.4034 13.2166 52.9529 13.8392 52.9529 14.0822C52.963 14.2745 53.0238 14.4061 53.1351 14.477C53.2566 14.5478 53.4641 14.5225 53.7577 14.401C55.0332 13.5406 55.671 12.7358 55.671 11.9867C55.7115 11.3388 55.261 10.944 54.3196 10.8023C54.2588 10.6403 54.4056 10.4176 54.7599 10.1341C55.1142 9.85067 55.2914 9.64315 55.2914 9.51155C55.3926 9.08637 55.3471 8.81811 55.1547 8.70675ZM60.6972 2.23805C61.0008 2.17731 61.2489 2.19249 61.4412 2.2836C61.6335 2.36459 61.7297 2.5873 61.7297 2.95173C61.6386 3.39715 61.3501 3.70591 60.8642 3.878C60.3783 4.05009 59.6798 4.46008 58.7687 5.10797C57.8576 5.74573 57.0528 6.16078 56.3543 6.35312C56.0101 6.33287 55.8937 6.18102 56.0051 5.89757C56.2075 5.30031 56.9921 4.58156 58.3587 3.74134C58.5915 3.57937 58.961 3.30098 59.4672 2.90618C59.9835 2.51137 60.3935 2.28866 60.6972 2.23805ZM55.914 23.6182C56.1974 23.6081 56.4657 23.5625 56.7187 23.4815C56.9718 23.4005 57.3261 23.1728 57.7817 22.7982C57.0629 22.4237 56.6783 21.9934 56.6276 21.5075C56.5871 21.0115 56.6276 20.5964 56.7491 20.2624C56.8807 19.9283 57.1237 19.579 57.478 19.2146C57.8424 18.8502 58.2676 18.6933 58.7535 18.7439C59.2495 18.7844 59.6342 18.9514 59.9075 19.245C60.1809 19.5284 60.3681 20.0396 60.4694 20.7786C60.4593 21.4468 60.3277 22.0845 60.0746 22.6919C59.8215 23.2993 59.2344 23.8409 58.3131 24.3167C57.3919 24.7925 56.5973 25.0202 55.9291 25L55.914 23.6182ZM4.97843 50.4303C3.59679 50.4303 2.52006 50.1158 1.74825 49.487C0.976437 48.8581 0.590531 47.9814 0.590531 46.8571C0.590531 46.4188 0.647702 45.9566 0.762045 45.4707C0.885916 44.9752 1.05267 44.4845 1.26229 43.9985L1.90547 44.2129C1.7149 44.6322 1.56244 45.0562 1.4481 45.485C1.33376 45.9137 1.27659 46.3139 1.27659 46.6856C1.27659 47.5812 1.57197 48.2768 2.16274 48.7723C2.76304 49.2678 3.59679 49.5155 4.66398 49.5155H5.27858C5.86935 49.5155 6.39818 49.4488 6.86508 49.3154C7.33198 49.1916 7.72741 49.0153 8.05138 48.7866C8.37535 48.5674 8.6231 48.3054 8.79461 48.0005C8.96612 47.7051 9.05188 47.3859 9.05188 47.0429V46.9714L5.90746 46.2282V45.3849H6.35054C7.00801 45.3849 7.47967 45.2801 7.76553 45.0705C8.06091 44.8513 8.2086 44.494 8.2086 43.9985C8.2086 43.8079 8.19431 43.565 8.16572 43.2696C8.13714 42.9647 8.0895 42.5883 8.0228 42.1404L7.83699 40.9827L8.56592 40.8684L8.72315 42.0261C8.78984 42.4739 8.83749 42.8551 8.86607 43.1695C8.89466 43.4744 8.90895 43.746 8.90895 43.9842C8.90895 44.8608 8.53257 45.4611 7.77982 45.7851V45.828L9.08047 46.171C9.30915 46.2377 9.4759 46.3378 9.58071 46.4712C9.68553 46.6046 9.73793 46.7951 9.73793 47.0429C9.73793 47.5288 9.62836 47.9767 9.4092 48.3864C9.19957 48.8057 8.88989 49.163 8.48017 49.4584C8.07044 49.7633 7.57019 50.0015 6.97942 50.173C6.38865 50.3445 5.72165 50.4303 4.97843 50.4303ZM7.93704 39.1532C7.78458 39.1532 7.66071 39.1104 7.56543 39.0246C7.47967 38.9293 7.43679 38.7864 7.43679 38.5958C7.43679 38.4053 7.47967 38.2671 7.56543 38.1813C7.66071 38.0956 7.78458 38.0527 7.93704 38.0527H8.05138C8.20384 38.0527 8.32295 38.0956 8.4087 38.1813C8.50399 38.2671 8.55163 38.4053 8.55163 38.5958C8.55163 38.7864 8.50399 38.9293 8.4087 39.0246C8.32295 39.1104 8.20384 39.1532 8.05138 39.1532H7.93704ZM5.836 53.2888C5.68354 53.2888 5.55967 53.2412 5.46438 53.1459C5.37863 53.0602 5.33575 52.922 5.33575 52.7314C5.33575 52.5408 5.37863 52.4027 5.46438 52.3169C5.55967 52.2312 5.68354 52.1883 5.836 52.1883H5.95034C6.10279 52.1883 6.2219 52.2312 6.30766 52.3169C6.40294 52.4027 6.45059 52.5408 6.45059 52.7314C6.45059 52.922 6.40294 53.0602 6.30766 53.1459C6.2219 53.2412 6.10279 53.2888 5.95034 53.2888H5.836ZM4.00651 53.2888C3.85406 53.2888 3.73019 53.2412 3.6349 53.1459C3.54914 53.0602 3.50627 52.922 3.50627 52.7314C3.50627 52.5408 3.54914 52.4027 3.6349 52.3169C3.73019 52.2312 3.85406 52.1883 4.00651 52.1883H4.12086C4.27331 52.1883 4.39242 52.2312 4.47818 52.3169C4.57346 52.4027 4.62111 52.5408 4.62111 52.7314C4.62111 52.922 4.57346 53.0602 4.47818 53.1459C4.39242 53.2412 4.27331 53.2888 4.12086 53.2888H4.00651ZM13.8354 47C13.3971 47 13.0302 46.9619 12.7348 46.8857C12.4395 46.8094 12.1965 46.6856 12.0059 46.514C11.8249 46.333 11.6915 46.0996 11.6057 45.8137C11.5295 45.5278 11.4914 45.18 11.4914 44.7703V36.4233H12.2489V44.7703C12.2489 45.2753 12.3585 45.6279 12.5776 45.828C12.7968 46.0281 13.1589 46.1281 13.6639 46.1281H14.3071V46.7713L14.0784 47H13.8354ZM26.6021 47C26.1924 47 25.8541 46.9571 25.5873 46.8714C25.3301 46.7761 25.0823 46.6046 24.8441 46.3568C24.32 46.7856 23.5244 47 22.4572 47H18.3409C17.7215 47 17.2356 46.8904 16.883 46.6713C16.54 46.4426 16.3113 46.0948 16.1969 45.6279H16.1398C16.035 46.1329 15.8253 46.4902 15.5109 46.6999C15.206 46.9 14.7296 47 14.0816 47V46.3568L14.3103 46.1281H14.639C15.1536 46.1281 15.5204 46.0138 15.7396 45.7851C15.9683 45.5469 16.0826 45.1562 16.0826 44.6131V43.4411H16.7972V44.6131C16.7972 45.3563 17.0355 45.828 17.5119 46.0281L18.2551 44.7846C18.6267 44.1557 18.9983 43.6221 19.37 43.1838C19.7416 42.7455 20.1179 42.3929 20.4991 42.1261C20.8898 41.8498 21.2804 41.6497 21.6711 41.5259C22.0713 41.402 22.4858 41.34 22.9146 41.34C23.8103 41.34 24.5011 41.5926 24.987 42.0976C25.4825 42.593 25.7303 43.2886 25.7303 44.1843C25.7303 44.8323 25.6064 45.3659 25.3586 45.7851C25.5302 45.9185 25.7112 46.009 25.9018 46.0567C26.0923 46.1043 26.3258 46.1281 26.6021 46.1281H26.8308V46.7713L26.6021 47ZM22.4572 46.1281C23.2862 46.1281 23.9198 45.9804 24.3581 45.6851C24.7965 45.3801 25.0156 44.9085 25.0156 44.2701C25.0156 43.6031 24.8489 43.0933 24.5154 42.7407C24.1819 42.3882 23.715 42.2119 23.1147 42.2119H22.7288C22.3572 42.2119 22.0046 42.2643 21.6711 42.3691C21.3471 42.4644 21.0279 42.6216 20.7135 42.8408C20.399 43.0599 20.0894 43.3553 19.7844 43.7269C19.4795 44.089 19.1603 44.5321 18.8268 45.0562L18.1979 46.0567L18.2408 46.1281H22.4572ZM22.4286 39.5963C22.2762 39.5963 22.1523 39.5534 22.057 39.4677C21.9712 39.3724 21.9284 39.2295 21.9284 39.0389C21.9284 38.8483 21.9712 38.7102 22.057 38.6244C22.1523 38.5387 22.2762 38.4958 22.4286 38.4958H22.543C22.6954 38.4958 22.8145 38.5387 22.9003 38.6244C22.9956 38.7102 23.0432 38.8483 23.0432 39.0389C23.0432 39.2295 22.9956 39.3724 22.9003 39.4677C22.8145 39.5534 22.6954 39.5963 22.543 39.5963H22.4286ZM28.5027 46.0853C28.2836 46.4092 28.0263 46.6427 27.7309 46.7856C27.4355 46.9285 27.0592 47 26.6018 47V46.3568L26.8305 46.1281C27.0496 46.1281 27.2354 46.0996 27.3879 46.0424C27.5403 45.9852 27.6737 45.8995 27.7881 45.7851C27.912 45.6612 28.0168 45.504 28.1025 45.3134C28.1978 45.1229 28.2931 44.8942 28.3884 44.6274L28.7457 43.6269C28.9649 42.9885 29.246 42.4978 29.589 42.1547C29.932 41.8117 30.4037 41.6402 31.004 41.6402C31.69 41.6402 32.2189 41.9356 32.5905 42.5263C32.9716 43.1076 33.1622 43.9223 33.1622 44.9704V46.2425L32.5619 47.1143L28.5027 46.0853ZM28.8886 45.2849L32.4333 46.1853V44.9704C32.4333 44.1986 32.2999 43.5983 32.0331 43.1695C31.7663 42.7312 31.3899 42.5121 30.9039 42.5121C30.5037 42.5121 30.1893 42.6359 29.9606 42.8837C29.7319 43.1314 29.527 43.5126 29.346 44.0271L28.9887 45.0276L28.8886 45.2849ZM34.8803 41.8689C34.6326 41.8689 34.4373 41.7831 34.2943 41.6116C34.1514 41.4306 34.0799 41.1828 34.0799 40.8684V40.0251H34.6231V40.7112C34.6231 41.0351 34.7565 41.1971 35.0233 41.1971C35.3663 41.1971 35.5378 40.9446 35.5378 40.4396V39.6392H36.0809V40.0966C36.0809 40.5349 36.2334 40.754 36.5383 40.754C36.8432 40.754 36.9957 40.5635 36.9957 40.1823C36.9957 39.9346 36.9385 39.644 36.8242 39.3105L37.353 39.1532C37.4102 39.3248 37.453 39.4963 37.4816 39.6678C37.5197 39.8298 37.5388 39.987 37.5388 40.1394C37.5388 40.5492 37.453 40.8684 37.2815 41.0971C37.11 41.3162 36.8575 41.4258 36.524 41.4258C36.3334 41.4258 36.1715 41.3686 36.0381 41.2543C35.9142 41.1304 35.8284 40.9732 35.7808 40.7826H35.7379C35.7189 41.1161 35.6331 41.3829 35.4806 41.583C35.3377 41.7736 35.1376 41.8689 34.8803 41.8689ZM32.9226 49.5584H33.3799C33.9326 49.5584 34.3947 49.4774 34.7663 49.3154C35.1475 49.163 35.4476 48.9486 35.6668 48.6723C35.8859 48.3959 36.0432 48.0672 36.1384 47.6861C36.2337 47.3144 36.2814 46.9095 36.2814 46.4712C36.2814 46.2044 36.2671 45.9185 36.2385 45.6136C36.2194 45.2992 36.1861 45.0085 36.1384 44.7417L35.8383 43.0123L36.5672 42.8694L36.7816 44.2844C36.8293 44.5893 36.8674 44.899 36.896 45.2134C36.9341 45.5278 36.9627 45.8328 36.9817 46.1281H38.2395V46.7713L38.0108 47H36.9674C36.9293 47.486 36.8388 47.9386 36.6959 48.3578C36.5529 48.7771 36.3385 49.1392 36.0527 49.4441C35.7668 49.7585 35.4047 50.0015 34.9664 50.173C34.5281 50.3445 33.9993 50.4303 33.3799 50.4303H32.9226V49.5584ZM38.0053 46.3568L38.234 46.1281H38.5056C39.0487 46.1281 39.4441 46.0043 39.6919 45.7565C39.9396 45.5088 40.0635 45.1181 40.0635 44.5845V36.4233H40.821V44.5845C40.821 45.423 40.6352 46.0376 40.2636 46.4283C39.9015 46.8094 39.3155 47 38.5056 47H38.0053V46.3568ZM43.1324 36.4233H43.89V47H43.1324V36.4233ZM53.44 50.4303C52.0584 50.4303 50.9816 50.1158 50.2098 49.487C49.438 48.8581 49.0521 47.9814 49.0521 46.8571C49.0521 46.4188 49.1093 45.9566 49.2236 45.4707C49.3475 44.9752 49.5143 44.4845 49.7239 43.9985L50.3671 44.2129C50.1765 44.6322 50.024 45.0562 49.9097 45.485C49.7953 45.9137 49.7382 46.3139 49.7382 46.6856C49.7382 47.5812 50.0336 48.2768 50.6243 48.7723C51.2246 49.2678 52.0584 49.5155 53.1256 49.5155H53.7402C54.9312 49.5155 55.8555 49.2535 56.513 48.7294C57.18 48.2149 57.5135 47.4907 57.5135 46.5569V46.3997L55.0408 45.8137C54.2881 45.6327 53.7354 45.3706 53.3828 45.0276C53.0303 44.6846 52.854 44.2367 52.854 43.6841C52.854 43.2458 52.935 42.8217 53.097 42.412C53.259 42.0023 53.4781 41.6402 53.7545 41.3258C54.0308 41.0018 54.35 40.7445 54.7121 40.5539C55.0742 40.3538 55.4553 40.2538 55.8555 40.2538C56.351 40.2538 56.775 40.3777 57.1276 40.6254C57.4801 40.8636 57.7612 41.2019 57.9708 41.6402L57.342 42.1976C56.9799 41.4925 56.4558 41.1399 55.7697 41.1399C55.4648 41.1399 55.1742 41.2066 54.8979 41.34C54.6311 41.4734 54.3976 41.6497 54.1975 41.8689C53.9974 42.088 53.8402 42.3453 53.7259 42.6407C53.6115 42.9361 53.5544 43.2458 53.5544 43.5697C53.5544 43.9032 53.6735 44.1796 53.9117 44.3987C54.1594 44.6179 54.5501 44.7941 55.0837 44.9275L57.3134 45.485C57.9041 45.6184 58.1995 45.9757 58.1995 46.5569C58.1995 47.1667 58.0899 47.7099 57.8708 48.1863C57.6612 48.6627 57.3515 49.0677 56.9418 49.4012C56.532 49.7347 56.0318 49.9872 55.441 50.1587C54.8502 50.3398 54.1832 50.4303 53.44 50.4303ZM54.2976 53.2888C54.1451 53.2888 54.0213 53.2412 53.926 53.1459C53.8402 53.0602 53.7973 52.922 53.7973 52.7314C53.7973 52.5408 53.8402 52.4027 53.926 52.3169C54.0213 52.2312 54.1451 52.1883 54.2976 52.1883H54.4119C54.5644 52.1883 54.6835 52.2312 54.7692 52.3169C54.8645 52.4027 54.9122 52.5408 54.9122 52.7314C54.9122 52.922 54.8645 53.0602 54.7692 53.1459C54.6835 53.2412 54.5644 53.2888 54.4119 53.2888H54.2976ZM52.4681 53.2888C52.3156 53.2888 52.1918 53.2412 52.0965 53.1459C52.0107 53.0602 51.9679 52.922 51.9679 52.7314C51.9679 52.5408 52.0107 52.4027 52.0965 52.3169C52.1918 52.2312 52.3156 52.1883 52.4681 52.1883H52.5824C52.7349 52.1883 52.854 52.2312 52.9398 52.3169C53.035 52.4027 53.0827 52.5408 53.0827 52.7314C53.0827 52.922 53.035 53.0602 52.9398 53.1459C52.854 53.2412 52.7349 53.2888 52.5824 53.2888H52.4681ZM60.1102 47C59.8434 47 59.629 46.9238 59.467 46.7713C59.305 46.6189 59.224 46.3949 59.224 46.0996V44.999H59.9387V46.1281H62.4828C63.0259 46.1281 63.4071 46.071 63.6262 45.9566C63.8454 45.8423 63.955 45.6517 63.955 45.3849C63.955 45.2515 63.9359 45.1133 63.8978 44.9704C63.8597 44.8275 63.7882 44.6036 63.6834 44.2987L62.2255 40.2538L62.9687 39.9822L64.4838 44.2272C64.6172 44.6083 64.7411 44.9228 64.8554 45.1705C64.9697 45.4087 65.0841 45.5993 65.1984 45.7422C65.3223 45.8852 65.4509 45.9852 65.5843 46.0424C65.7177 46.0996 65.875 46.1281 66.056 46.1281H66.3276V46.7713L66.0989 47C65.6224 47 65.2508 46.9095 64.984 46.7284C64.7172 46.5379 64.479 46.1996 64.2694 45.7136H64.1979C64.1598 46.1615 63.9978 46.4902 63.712 46.6999C63.4356 46.9 63.0259 47 62.4828 47H60.1102ZM66.1024 46.3568L66.3311 46.1281H66.6885C67.0982 46.1281 67.4841 46.1091 67.8462 46.071C68.2083 46.0329 68.5751 45.9662 68.9467 45.8709C69.3183 45.7661 69.709 45.6231 70.1187 45.4421C70.5285 45.261 70.9858 45.0276 71.4908 44.7417L73.1059 43.8127V43.7698L71.0906 43.2982L67.6318 42.3977V43.6412H66.9028V42.5406C66.9028 42.2548 66.9838 42.0356 67.1458 41.8832C67.3078 41.7212 67.5127 41.6402 67.7604 41.6402C67.8366 41.6402 67.9319 41.6497 68.0463 41.6688C68.1701 41.6783 68.3559 41.7164 68.6037 41.7831L72.4913 42.7979C72.9582 42.9218 73.3584 43.0123 73.6919 43.0695C74.035 43.1171 74.3303 43.1409 74.5781 43.1409H74.9211V44.0128H73.9206V44.5988C73.9206 45.1705 74.0302 45.5707 74.2494 45.7994C74.4685 46.0186 74.8306 46.1281 75.3356 46.1281H75.7501V46.7713L75.5214 47C75.1022 47 74.7496 46.9619 74.4637 46.8857C74.1874 46.7999 73.9587 46.6665 73.7777 46.4855C73.6062 46.3044 73.4823 46.0662 73.4061 45.7708C73.3298 45.4754 73.2917 45.1133 73.2917 44.6846V44.413L71.6909 45.4278C71.1288 45.7803 70.6285 46.0614 70.1902 46.2711C69.7614 46.4712 69.3564 46.6284 68.9753 46.7427C68.5942 46.8475 68.2225 46.919 67.8605 46.9571C67.4984 46.9857 67.1077 47 66.6885 47H66.1024V46.3568ZM75.524 46.3568L75.7527 46.1281H76.0814C76.615 46.1281 76.9961 46.0138 77.2248 45.7851C77.463 45.5469 77.5821 45.1562 77.5821 44.6131V42.2977H78.2968V44.6131C78.2968 45.6231 78.7684 46.1281 79.7118 46.1281H80.1263V46.7713L79.8976 47C78.6589 47 77.9252 46.5426 77.6965 45.6279H77.6393C77.5345 46.1424 77.3201 46.4998 76.9961 46.6999C76.6817 46.9 76.191 47 75.524 47V46.3568ZM78.7684 40.5539C78.616 40.5539 78.4921 40.5111 78.3968 40.4253C78.3111 40.33 78.2682 40.1871 78.2682 39.9965C78.2682 39.8059 78.3111 39.6678 78.3968 39.582C78.4921 39.4963 78.616 39.4534 78.7684 39.4534H78.8828C79.0352 39.4534 79.1544 39.4963 79.2401 39.582C79.3354 39.6678 79.383 39.8059 79.383 39.9965C79.383 40.1871 79.3354 40.33 79.2401 40.4253C79.1544 40.5111 79.0352 40.5539 78.8828 40.5539H78.7684ZM76.939 40.5539C76.7865 40.5539 76.6626 40.5111 76.5674 40.4253C76.4816 40.33 76.4387 40.1871 76.4387 39.9965C76.4387 39.8059 76.4816 39.6678 76.5674 39.582C76.6626 39.4963 76.7865 39.4534 76.939 39.4534H77.0533C77.2058 39.4534 77.3249 39.4963 77.4106 39.582C77.5059 39.6678 77.5536 39.8059 77.5536 39.9965C77.5536 40.1871 77.5059 40.33 77.4106 40.4253C77.3249 40.5111 77.2058 40.5539 77.0533 40.5539H76.939ZM79.8928 46.3568L80.1215 46.1281H80.393C80.9362 46.1281 81.3316 46.0043 81.5793 45.7565C81.8271 45.5088 81.9509 45.1181 81.9509 44.5845V36.4233H82.7085V44.5845C82.7085 45.423 82.5227 46.0376 82.151 46.4283C81.789 46.8094 81.203 47 80.393 47H79.8928V46.3568ZM85.0199 36.4233H85.7774V47H85.0199V36.4233Z" fill="#1D1A49"/>
</svg>
