<svg width="520" height="85" viewBox="0 0 520 85" fill="none" xmlns="http://www.w3.org/2000/svg">
<path opacity="0.946" fill-rule="evenodd" clip-rule="evenodd" d="M84.5224 0C84.8409 0 85.1589 0 85.4774 0C85.5304 0.294838 85.6895 0.533601 85.955 0.716291C85.3141 2.81436 85.0754 4.96323 85.2387 7.16291C85.7382 6.40341 86.2954 5.68712 86.91 5.01404C87.4353 4.80791 87.7538 5.04666 87.8651 5.73033C87.0452 7.93976 86.4884 10.1682 86.1937 12.4157C86.8723 11.2174 87.6683 10.1031 88.5814 9.07302C89.1367 9.92551 89.4552 10.8806 89.5364 11.9382C91.4723 9.7621 93.6212 7.85199 95.983 6.20786C96.3784 8.41953 96.6172 10.648 96.6993 12.8932C97.3588 11.8738 97.8363 10.7596 98.1319 9.55055C98.3998 9.30133 98.7183 9.14217 99.087 9.07302C101.016 10.207 102.449 11.7988 103.385 13.8483C103.57 11.4556 103.491 9.06792 103.146 6.68539C105.482 7.50726 107.153 9.09905 108.16 11.4607C107.664 8.6093 107.107 5.74413 106.489 2.86517C108.304 3.47574 109.817 4.58997 111.025 6.20786C112.54 8.28076 113.813 10.5092 114.845 12.8932C116.078 9.55327 117.749 6.44934 119.859 3.58146C120.329 3.29934 120.647 3.45851 120.814 4.05898C120.042 6.32719 119.644 8.63528 119.621 10.9831C120.457 9.46842 121.412 8.03583 122.486 6.68539C123.089 5.67924 123.965 5.20171 125.112 5.2528C124.872 7.16607 124.792 9.07618 124.873 10.9831C125.917 9.21709 127.191 7.6253 128.694 6.20786C129.611 7.56346 130.407 8.99605 131.081 10.5056C130.943 8.41003 130.545 6.34075 129.888 4.29775C132.311 5.03925 134.301 6.47184 135.857 8.5955C135.792 7.6764 135.712 6.72134 135.618 5.73033C137.797 5.75421 139.469 6.70926 140.632 8.5955C139.838 6.58768 139.122 4.51841 138.483 2.38764C141.381 3.36658 143.927 4.95834 146.123 7.16291C146.895 4.68807 147.85 2.30043 148.989 0C149.307 0 149.625 0 149.944 0C149.723 2.73323 149.484 5.43923 149.227 8.11797C149.649 6.87525 150.365 5.84059 151.376 5.01404C151.846 4.73192 152.164 4.8911 152.331 5.49157C151.367 7.73767 150.81 10.0457 150.66 12.4157C151.339 11.2174 152.135 10.1031 153.048 9.07302C153.207 10.0281 153.366 10.9831 153.525 11.9382C154.383 8.62778 155.975 5.76261 158.3 3.34269C158.539 3.50187 158.778 3.66105 159.017 3.82022C158.093 5.97081 157.695 8.19924 157.823 10.5056C159.118 8.79052 160.472 7.11917 161.882 5.49157C162.335 5.26102 162.812 5.18141 163.314 5.2528C162.915 7.32255 162.676 9.39187 162.598 11.4607C163.726 9.5187 165.078 7.7678 166.657 6.20786C167.654 7.72296 168.53 9.3147 169.284 10.9831C169.042 8.7409 168.644 6.51243 168.09 4.29775C170.349 4.87564 172.18 6.14903 173.581 8.11797C173.572 7.35034 173.493 6.5545 173.343 5.73033C175.688 5.91337 177.518 7.02763 178.834 9.07302C178.372 7.03145 177.497 5.12134 176.208 3.34269C176.392 2.76018 176.79 2.44183 177.401 2.38764C179.891 3.6018 182.119 5.19354 184.087 7.16291C185.013 4.78235 185.888 2.39471 186.713 0C187.191 0 187.668 0 188.146 0C187.747 2.54715 187.508 5.09398 187.43 7.64044C188.054 6.61786 188.77 5.66281 189.578 4.77528C189.737 5.1732 189.897 5.57117 190.056 5.9691C189.346 7.92724 188.948 9.91696 188.862 11.9382C189.468 10.8794 190.184 9.92431 191.011 9.07302C191.397 9.99145 191.636 10.9465 191.727 11.9382C193.663 9.7621 195.812 7.85199 198.174 6.20786C198.651 6.36702 198.97 6.68539 199.129 7.16291C198.549 9.08224 198.628 10.9924 199.368 12.8932C199.601 11.2867 200.318 10.0134 201.517 9.07302C202.247 9.08678 202.804 9.40515 203.188 10.0281C204.143 11.3015 205.098 12.5749 206.053 13.8483C206.043 11.7711 205.804 9.70174 205.337 7.64044C205.592 6.87578 206.07 6.63701 206.769 6.92415C208.141 8.13545 209.335 9.48843 210.351 10.9831C210.431 10.7444 210.51 10.5056 210.59 10.2668C209.803 7.82801 209.166 5.36077 208.68 2.86517C210.024 3.1643 211.218 3.80101 212.261 4.77528C214.131 7.39996 215.882 10.106 217.514 12.8932C218.57 9.34612 220.241 6.16264 222.528 3.34269C222.687 3.74063 222.846 4.13857 223.005 4.53651C222.355 6.83251 221.956 9.14055 221.812 11.4607C223.07 9.08749 224.661 7.01818 226.587 5.2528C227.093 5.31493 227.49 5.55369 227.781 5.9691C227.153 7.7475 226.914 9.57801 227.064 11.4607C228.153 9.576 229.427 7.82505 230.885 6.20786C232.211 7.74454 233.166 9.49549 233.75 11.4607C233.545 9.01138 232.988 6.62374 232.078 4.29775C234.66 4.83897 236.65 6.27156 238.048 8.5955C238.133 7.64598 238.054 6.69093 237.809 5.73033C240.159 5.9211 241.989 7.03532 243.3 9.07302C242.894 7.06454 242.018 5.23399 240.674 3.58146C240.754 2.86517 241.151 2.46723 241.868 2.38764C244.34 3.62515 246.569 5.21689 248.553 7.16291C249.292 4.70666 250.167 2.31903 251.18 0C251.657 0 252.135 0 252.612 0C252.125 2.37491 251.886 4.76255 251.896 7.16291C252.395 6.40341 252.953 5.68712 253.567 5.01404C254.092 4.80791 254.411 5.04666 254.522 5.73033C253.664 7.73728 253.266 9.80655 253.328 11.9382C255.075 8.03311 256.03 8.19232 256.194 12.4157C256.533 11.7122 257.089 11.3939 257.865 11.4607C257.794 11.963 257.873 12.4405 258.104 12.8932C258.8 11.3382 259.835 10.0648 261.208 9.07302C261.74 9.65704 261.819 10.2937 261.446 10.9831C260.67 12.2048 260.192 13.4782 260.014 14.8034C260.617 13.7972 261.493 13.3197 262.64 13.3708C262.64 14.0075 262.64 14.6442 262.64 15.2809C261.675 16.2509 260.879 17.3651 260.253 18.6236C258.437 19.1674 256.527 19.5654 254.522 19.8174C245.019 20.2469 235.548 20.9632 226.109 21.9663C224.119 21.8867 222.13 21.8071 220.14 21.7275C216.067 19.4964 211.848 19.0985 207.486 20.5337C191.329 19.9144 175.172 19.3573 159.017 18.8623C144.844 18.5938 130.677 18.5938 116.517 18.8623C113.164 17.0491 109.582 16.1736 105.772 16.2359C96.9395 16.667 88.1053 17.0649 79.2696 17.4298C76.339 18.1943 73.4738 19.1494 70.6741 20.2949C67.3247 21.2282 63.982 21.2282 60.646 20.2949C41.5109 19.8511 22.4098 19.294 3.34269 18.6236C2.49742 16.0767 1.38319 13.6891 0 11.4607C0 10.824 0 10.1872 0 9.55055C0.724596 9.55561 1.28171 9.87393 1.67135 10.5056C2.6264 12.0974 3.58146 13.6891 4.53651 15.2809C4.47179 11.4859 3.91467 7.74526 2.86517 4.05898C2.91936 3.44786 3.2377 3.04993 3.82022 2.86517C5.54882 5.52757 6.9018 8.39274 7.87921 11.4607C8.11763 9.07833 8.19719 6.69069 8.11797 4.29775C9.26556 4.24664 10.141 4.72417 10.7444 5.73033C12.5489 8.22451 13.9815 10.9305 15.0421 13.8483C16.5859 10.2333 18.2572 6.73142 20.0562 3.34269C20.2153 3.58146 20.3745 3.82022 20.5337 4.05898C19.8217 6.50011 19.4238 8.96735 19.3399 11.4607C20.9505 9.1925 22.7811 7.12318 24.8314 5.2528C25.2173 5.39969 25.5356 5.63846 25.7865 5.9691C24.574 8.48772 23.8577 11.1141 23.6376 13.8483C25.8755 10.8939 28.502 8.34713 31.5168 6.20786C31.81 8.47249 32.208 10.7009 32.7106 12.8932C32.9901 11.4034 33.6268 10.13 34.6208 9.07302C36.5501 10.207 37.9826 11.7988 38.9185 13.8483C39.0438 11.4847 39.1234 9.1767 39.1573 6.92415C41.2369 7.72984 42.7491 9.24197 43.6938 11.4607C43.1978 8.6093 42.6406 5.74413 42.0224 2.86517C44.0005 3.63853 45.6719 4.91194 47.0365 6.68539C48.2303 8.75466 49.4241 10.824 50.6179 12.8932C51.8953 9.62175 53.4874 6.51782 55.3932 3.58146C55.9185 3.37532 56.237 3.61409 56.3483 4.29775C55.6668 6.50732 55.269 8.73575 55.1544 10.9831C56.2685 9.39139 57.3831 7.7996 58.4971 6.20786C59.0272 5.47399 59.7435 5.15563 60.646 5.2528C60.4951 7.17466 60.4154 9.08477 60.4072 10.9831C61.6808 9.39139 62.9539 7.7996 64.2275 6.20786C65.2971 7.86717 66.2522 9.61812 67.0926 11.4607C66.8882 9.01138 66.331 6.62374 65.4213 4.29775C66.0769 4.22293 66.7139 4.30252 67.3314 4.53651C68.6842 5.88949 70.0375 7.24252 71.3904 8.5955C71.3259 7.6764 71.2462 6.72134 71.1516 5.73033C73.502 5.9211 75.3324 7.03532 76.6432 9.07302C75.9914 7.20971 75.116 5.37921 74.0168 3.58146C74.0965 2.86517 74.4943 2.46723 75.2106 2.38764C77.8446 3.58545 80.0733 5.33637 81.896 7.64044C82.5383 4.99613 83.414 2.44932 84.5224 0Z" fill="#86C536"/>
<path opacity="0.999" fill-rule="evenodd" clip-rule="evenodd" d="M260.253 18.6251C261.049 18.6251 261.844 18.6251 262.64 18.6251C262.64 26.9022 262.64 35.1794 262.64 43.4566C257.59 42.443 252.496 42.2838 247.359 42.979C233.366 42.2098 219.359 41.8119 205.337 41.7852C188.345 40.183 171.313 39.7054 154.241 40.3526C149.691 40.895 145.154 41.4521 140.632 42.024C135.464 41.4677 130.291 40.9901 125.112 40.5914C110.182 41.7928 95.22 42.4295 80.2246 42.5015C64.6286 41.8394 49.0297 41.2026 33.4269 40.5914C27.6753 40.56 21.945 40.8784 16.2359 41.5464C10.8054 40.9997 5.39339 40.363 0 39.6363C0 32.4734 0 25.3105 0 18.1476C1.081 18.4907 2.19524 18.65 3.34269 18.6251C22.4098 19.2955 41.5109 19.8526 60.646 20.2965C63.982 21.2297 67.3247 21.2297 70.6741 20.2965C73.4738 19.1509 76.339 18.1959 79.2696 17.4313C88.1053 17.0665 96.9395 16.6685 105.772 16.2375C109.582 16.1752 113.164 17.0506 116.517 18.8639C130.677 18.5953 144.844 18.5953 159.017 18.8639C175.172 19.3588 191.329 19.916 207.486 20.5352C211.848 19.1 216.067 19.498 220.14 21.729C222.13 21.8087 224.119 21.8882 226.109 21.9678C235.548 20.9647 245.019 20.2484 254.522 19.8189C256.527 19.5669 258.437 19.169 260.253 18.6251Z" fill="#915A31"/>
<path fill-rule="evenodd" clip-rule="evenodd" d="M0 39.6348C5.39339 40.3615 10.8054 40.9982 16.2359 41.5449C21.945 40.8768 27.6753 40.5584 33.4269 40.5898C49.0297 41.2011 64.6286 41.8378 80.2246 42.4999C95.22 42.428 110.182 41.7913 125.112 40.5898C130.291 40.9886 135.464 41.4661 140.632 42.0224C145.154 41.4505 149.691 40.8934 154.241 40.3511C171.313 39.7039 188.345 40.1814 205.337 41.7836C219.359 41.8103 233.366 42.2083 247.359 42.9775C252.496 42.2822 257.59 42.4414 262.64 43.455C262.64 49.5038 262.64 55.5522 262.64 61.601C241.205 61.559 219.796 62.1956 198.413 63.5111C190.718 63.4228 183.078 62.7863 175.491 61.601C167.466 62.5193 159.428 63.3154 151.376 63.9887C146.083 63.8096 140.831 63.2523 135.618 62.3173C123.035 62.0709 110.46 62.3097 97.8932 63.0336C91.51 63.0322 85.1432 62.7142 78.7921 62.0786C72.2069 63.0308 65.6013 63.8263 58.9747 64.4662C54.3412 64.1682 49.7254 63.6907 45.1264 63.0336C39.5928 63.9605 34.0216 64.438 28.4129 64.4662C18.9254 64.1926 9.45447 63.715 0 63.0336C0 55.2342 0 47.4344 0 39.6348Z" fill="#814B2B"/>
<path fill-rule="evenodd" clip-rule="evenodd" d="M262.64 61.6016C262.64 69.401 262.64 77.201 262.64 85.0004C175.094 85.0004 87.5466 85.0004 0 85.0004C0 77.6785 0 70.3561 0 63.0341C9.45447 63.7156 18.9254 64.1931 28.4129 64.4667C34.0216 64.4386 39.5928 63.961 45.1264 63.0341C49.7254 63.6912 54.3412 64.1687 58.9747 64.4667C65.6013 63.8268 72.2069 63.0313 78.7921 62.0791C85.1432 62.7147 91.51 63.0327 97.8932 63.0341C110.46 62.3102 123.035 62.0714 135.618 62.3179C140.831 63.2529 146.083 63.8101 151.376 63.9892C159.428 63.3159 167.466 62.5198 175.491 61.6016C183.078 62.7868 190.718 63.4233 198.413 63.5117C219.796 62.1961 241.205 61.5595 262.64 61.6016Z" fill="#713D22"/>
<path opacity="0.946" fill-rule="evenodd" clip-rule="evenodd" d="M340.955 0C341.273 0 341.591 0 341.91 0C341.963 0.294838 342.122 0.533601 342.387 0.716291C341.746 2.81436 341.507 4.96323 341.671 7.16291C342.17 6.40341 342.728 5.68712 343.342 5.01404C343.867 4.80791 344.186 5.04666 344.297 5.73033C343.477 7.93976 342.92 10.1682 342.626 12.4157C343.304 11.2174 344.1 10.1031 345.013 9.07302C345.569 9.92551 345.887 10.8806 345.969 11.9382C347.904 9.7621 350.053 7.85199 352.415 6.20786C352.811 8.41953 353.049 10.648 353.131 12.8932C353.791 11.8738 354.268 10.7596 354.564 9.55055C354.832 9.30133 355.15 9.14217 355.519 9.07302C357.448 10.207 358.881 11.7988 359.817 13.8483C360.002 11.4556 359.923 9.06792 359.578 6.68539C361.914 7.50726 363.585 9.09905 364.592 11.4607C364.096 8.6093 363.539 5.74413 362.921 2.86517C364.736 3.47574 366.249 4.58997 367.457 6.20786C368.972 8.28076 370.246 10.5092 371.278 12.8932C372.51 9.55327 374.181 6.44934 376.292 3.58146C376.761 3.29934 377.079 3.45851 377.247 4.05898C376.474 6.32719 376.076 8.63528 376.053 10.9831C376.889 9.46842 377.844 8.03583 378.918 6.68539C379.522 5.67924 380.397 5.20171 381.544 5.2528C381.304 7.16607 381.224 9.07618 381.306 10.9831C382.349 9.21709 383.623 7.6253 385.126 6.20786C386.043 7.56346 386.839 8.99605 387.513 10.5056C387.375 8.41003 386.977 6.34075 386.32 4.29775C388.744 5.03925 390.733 6.47184 392.289 8.5955C392.224 7.6764 392.145 6.72134 392.05 5.73033C394.229 5.75421 395.901 6.70926 397.064 8.5955C396.27 6.58768 395.554 4.51841 394.915 2.38764C397.813 3.36658 400.359 4.95834 402.556 7.16291C403.327 4.68807 404.282 2.30043 405.421 0C405.739 0 406.057 0 406.376 0C406.155 2.73323 405.916 5.43923 405.66 8.11797C406.081 6.87525 406.797 5.84059 407.808 5.01404C408.278 4.73192 408.596 4.8911 408.763 5.49157C407.799 7.73767 407.242 10.0457 407.092 12.4157C407.771 11.2174 408.567 10.1031 409.48 9.07302C409.639 10.0281 409.798 10.9831 409.957 11.9382C410.815 8.62778 412.407 5.76261 414.733 3.34269C414.971 3.50187 415.21 3.66105 415.449 3.82022C414.525 5.97081 414.127 8.19924 414.255 10.5056C415.551 8.79052 416.904 7.11917 418.314 5.49157C418.767 5.26102 419.244 5.18141 419.747 5.2528C419.347 7.32255 419.108 9.39187 419.03 11.4607C420.158 9.5187 421.511 7.7678 423.089 6.20786C424.086 7.72296 424.962 9.3147 425.716 10.9831C425.475 8.7409 425.076 6.51243 424.522 4.29775C426.782 4.87564 428.612 6.14903 430.013 8.11797C430.004 7.35034 429.925 6.5545 429.775 5.73033C432.12 5.91337 433.951 7.02763 435.266 9.07302C434.804 7.03145 433.929 5.12134 432.64 3.34269C432.825 2.76018 433.222 2.44183 433.834 2.38764C436.323 3.6018 438.551 5.19354 440.519 7.16291C441.445 4.78235 442.32 2.39471 443.145 0C443.623 0 444.1 0 444.578 0C444.179 2.54715 443.94 5.09398 443.862 7.64044C444.486 6.61786 445.203 5.66281 446.011 4.77528C446.17 5.1732 446.329 5.57117 446.488 5.9691C445.779 7.92724 445.38 9.91696 445.294 11.9382C445.9 10.8794 446.616 9.92431 447.443 9.07302C447.829 9.99145 448.068 10.9465 448.159 11.9382C450.095 9.7621 452.244 7.85199 454.606 6.20786C455.084 6.36702 455.402 6.68539 455.561 7.16291C454.981 9.08224 455.06 10.9924 455.8 12.8932C456.033 11.2867 456.75 10.0134 457.949 9.07302C458.679 9.08678 459.236 9.40515 459.62 10.0281C460.575 11.3015 461.53 12.5749 462.485 13.8483C462.475 11.7711 462.236 9.70174 461.769 7.64044C462.024 6.87578 462.502 6.63701 463.202 6.92415C464.573 8.13545 465.767 9.48843 466.783 10.9831C466.863 10.7444 466.942 10.5056 467.022 10.2668C466.235 7.82801 465.598 5.36077 465.112 2.86517C466.456 3.1643 467.65 3.80101 468.693 4.77528C470.563 7.39996 472.314 10.106 473.946 12.8932C475.002 9.34612 476.674 6.16264 478.96 3.34269C479.119 3.74063 479.278 4.13857 479.438 4.53651C478.787 6.83251 478.388 9.14055 478.244 11.4607C479.502 9.08749 481.094 7.01818 483.019 5.2528C483.525 5.31493 483.922 5.55369 484.213 5.9691C483.585 7.7475 483.346 9.57801 483.496 11.4607C484.585 9.576 485.859 7.82505 487.317 6.20786C488.643 7.74454 489.598 9.49549 490.182 11.4607C489.978 9.01138 489.42 6.62374 488.511 4.29775C491.092 4.83897 493.082 6.27156 494.48 8.5955C494.566 7.64598 494.486 6.69093 494.241 5.73033C496.591 5.9211 498.422 7.03532 499.732 9.07302C499.326 7.06454 498.45 5.23399 497.106 3.58146C497.186 2.86517 497.584 2.46723 498.3 2.38764C500.772 3.62515 503.001 5.21689 504.985 7.16291C505.724 4.70666 506.599 2.31903 507.612 0C508.089 0 508.567 0 509.044 0C508.557 2.37491 508.318 4.76255 508.328 7.16291C508.827 6.40341 509.385 5.68712 509.999 5.01404C510.525 4.80791 510.843 5.04666 510.954 5.73033C510.096 7.73728 509.698 9.80655 509.761 11.9382C511.507 8.03311 512.462 8.19232 512.626 12.4157C512.965 11.7122 513.522 11.3939 514.297 11.4607C514.226 11.963 514.305 12.4405 514.536 12.8932C515.233 11.3382 516.267 10.0648 517.64 9.07302C518.172 9.65704 518.251 10.2937 517.878 10.9831C517.102 12.2048 516.624 13.4782 516.446 14.8034C517.049 13.7972 517.925 13.3197 519.072 13.3708C519.072 14.0075 519.072 14.6442 519.072 15.2809C518.107 16.2509 517.311 17.3651 516.685 18.6236C514.87 19.1674 512.959 19.5654 510.954 19.8174C501.451 20.2469 491.98 20.9632 482.541 21.9663C480.552 21.8867 478.562 21.8071 476.572 21.7275C472.499 19.4964 468.281 19.0985 463.918 20.5337C447.761 19.9144 431.605 19.3573 415.449 18.8623C401.276 18.5938 387.109 18.5938 372.949 18.8623C369.596 17.0491 366.014 16.1736 362.204 16.2359C353.372 16.667 344.537 17.0649 335.702 17.4298C332.771 18.1943 329.906 19.1494 327.106 20.2949C323.757 21.2282 320.414 21.2282 317.078 20.2949C297.943 19.8511 278.842 19.294 259.775 18.6236C258.93 16.0767 257.815 13.6891 256.432 11.4607C256.432 10.824 256.432 10.1872 256.432 9.55055C257.157 9.55561 257.714 9.87393 258.103 10.5056C259.059 12.0974 260.014 13.6891 260.969 15.2809C260.904 11.4859 260.347 7.74526 259.297 4.05898C259.351 3.44786 259.67 3.04993 260.252 2.86517C261.981 5.52757 263.334 8.39274 264.311 11.4607C264.55 9.07833 264.629 6.69069 264.55 4.29775C265.698 4.24664 266.573 4.72417 267.176 5.73033C268.981 8.22451 270.414 10.9305 271.474 13.8483C273.018 10.2333 274.689 6.73142 276.488 3.34269C276.647 3.58146 276.807 3.82022 276.966 4.05898C276.254 6.50011 275.856 8.96735 275.772 11.4607C277.383 9.1925 279.213 7.12318 281.264 5.2528C281.649 5.39969 281.968 5.63846 282.219 5.9691C281.006 8.48772 280.29 11.1141 280.07 13.8483C282.308 10.8939 284.934 8.34713 287.949 6.20786C288.242 8.47249 288.64 10.7009 289.143 12.8932C289.422 11.4034 290.059 10.13 291.053 9.07302C292.982 10.207 294.415 11.7988 295.351 13.8483C295.476 11.4847 295.555 9.1767 295.589 6.92415C297.669 7.72984 299.181 9.24197 300.126 11.4607C299.63 8.6093 299.073 5.74413 298.455 2.86517C300.433 3.63853 302.104 4.91194 303.469 6.68539C304.662 8.75466 305.856 10.824 307.05 12.8932C308.327 9.62175 309.92 6.51782 311.825 3.58146C312.351 3.37532 312.669 3.61409 312.78 4.29775C312.099 6.50732 311.701 8.73575 311.587 10.9831C312.701 9.39139 313.815 7.7996 314.929 6.20786C315.459 5.47399 316.176 5.15563 317.078 5.2528C316.927 7.17466 316.847 9.08477 316.839 10.9831C318.113 9.39139 319.386 7.7996 320.66 6.20786C321.729 7.86717 322.684 9.61812 323.525 11.4607C323.32 9.01138 322.763 6.62374 321.853 4.29775C322.509 4.22293 323.146 4.30252 323.764 4.53651C325.116 5.88949 326.47 7.24252 327.823 8.5955C327.758 7.6764 327.678 6.72134 327.584 5.73033C329.934 5.9211 331.764 7.03532 333.075 9.07302C332.423 7.20971 331.548 5.37921 330.449 3.58146C330.529 2.86517 330.926 2.46723 331.643 2.38764C334.277 3.58545 336.505 5.33637 338.328 7.64044C338.97 4.99613 339.846 2.44932 340.955 0Z" fill="#86C536"/>
<path opacity="0.999" fill-rule="evenodd" clip-rule="evenodd" d="M516.685 18.6251C517.481 18.6251 518.277 18.6251 519.073 18.6251C519.073 26.9022 519.073 35.1794 519.073 43.4566C514.022 42.443 508.929 42.2838 503.792 42.979C489.799 42.2098 475.792 41.8119 461.769 41.7852C444.778 40.183 427.746 39.7054 410.674 40.3526C406.123 40.895 401.587 41.4521 397.064 42.024C391.897 41.4677 386.724 40.9901 381.545 40.5914C366.615 41.7928 351.653 42.4295 336.657 42.5015C321.061 41.8394 305.462 41.2026 289.86 40.5914C284.108 40.56 278.378 40.8784 272.669 41.5464C267.238 40.9997 268.61 43.695 256.91 42.74C256.91 35.577 255.716 26.7428 255.716 19.5799C256.797 19.923 258.628 18.65 259.775 18.6251C278.842 19.2955 297.944 19.8526 317.079 20.2965C320.415 21.2297 323.757 21.2297 327.107 20.2965C329.906 19.1509 332.772 18.1959 335.702 17.4313C344.538 17.0665 353.372 16.6685 362.205 16.2375C366.015 16.1752 369.596 17.0506 372.949 18.8639C387.109 18.5953 401.276 18.5953 415.449 18.8639C431.605 19.3588 447.762 19.916 463.918 20.5352C468.281 19.1 472.5 19.498 476.573 21.729C478.563 21.8087 480.552 21.8882 482.542 21.9678C491.98 20.9647 501.452 20.2484 510.955 19.8189C512.96 19.5669 514.87 19.169 516.685 18.6251Z" fill="#915A31"/>
<path fill-rule="evenodd" clip-rule="evenodd" d="M519.073 61.6016C519.073 69.401 519.073 77.201 519.073 85.0004C431.526 85.0004 343.979 85.0004 256.433 85.0004C256.433 77.6785 256.91 68.9234 256.91 61.6015C266.365 62.2829 275.358 64.1931 284.846 64.4667C290.454 64.4386 296.025 63.961 301.559 63.0341C306.158 63.6912 310.774 64.1687 315.407 64.4667C322.034 63.8268 328.64 63.0313 335.225 62.0791C341.576 62.7147 347.943 63.0327 354.326 63.0341C366.893 62.3102 379.468 62.0714 392.05 62.3179C397.263 63.2529 402.516 63.8101 407.809 63.9892C415.86 63.3159 423.899 62.5198 431.924 61.6016C439.51 62.7868 447.151 63.4233 454.845 63.5117C476.229 62.1961 497.638 61.5595 519.073 61.6016Z" fill="#713D22"/>
<path fill-rule="evenodd" clip-rule="evenodd" d="M256.432 43.4551C257.148 43.4551 267.238 40.9987 272.668 41.5454C278.377 40.8773 284.107 40.559 289.859 40.5903C305.462 41.2016 321.061 41.8383 336.657 42.5004C351.652 42.4285 366.614 41.7918 381.544 40.5903C386.723 40.9891 391.896 41.4666 397.064 42.0229C401.586 41.451 406.123 40.8939 410.674 40.3516C427.745 39.7044 444.777 40.1819 461.769 41.7842C475.791 41.8109 489.798 42.2088 503.791 42.978C508.928 42.2827 514.022 42.4419 519.072 43.4555C519.072 49.5043 519.072 55.5527 519.072 61.6016C497.637 61.5595 476.228 62.1961 454.845 63.5117C447.15 63.4233 439.51 62.7868 431.924 61.6016C423.898 62.5198 415.86 63.3159 407.808 63.9892C402.515 63.8101 397.263 63.2528 392.05 62.3178C379.467 62.0714 366.892 62.3102 354.325 63.0341C347.942 63.0327 341.575 62.7147 335.224 62.0791C328.639 63.0313 322.033 63.8268 315.407 64.4667C310.773 64.1687 306.158 63.6912 301.558 63.0341C296.025 63.961 290.454 64.4385 284.845 64.4667C275.358 64.1931 266.125 62.5213 256.671 61.8399C256.671 54.0404 256.432 51.2547 256.432 43.4551Z" fill="#814B2B"/>
</svg>
